<?xml version="1.0" encoding="utf-8"?>
<!-- Generator: Adobe Illustrator 15.0.0, SVG Export Plug-In . SVG Version: 6.00 Build 0)  -->
<!DOCTYPE svg PUBLIC "-//W3C//DTD SVG 1.1//EN" "http://www.w3.org/Graphics/SVG/1.1/DTD/svg11.dtd">
<svg version="1.1" id="Layer_1" xmlns="http://www.w3.org/2000/svg" xmlns:xlink="http://www.w3.org/1999/xlink" x="0px" y="0px"
	 width="661.467px" height="577.472px" viewBox="0 0 661.467 577.472" enable-background="new 0 0 661.467 577.472"
	 xml:space="preserve">
<path fill="#FFFFFF" d="M442.938,316.287H170.397c-10.652,0-19.289,8.636-19.289,19.289V522.14h311.12V335.576
	C462.229,324.923,453.592,316.287,442.938,316.287"/>
<path fill="#CAD3DB" d="M479.021,513.473H134.314c-5.385,0-9.751,4.365-9.751,9.75v7.584c0,5.386,4.366,9.752,9.751,9.752h344.707
	c5.385,0,9.751-4.366,9.751-9.752v-7.584C488.772,517.838,484.406,513.473,479.021,513.473"/>
<rect x="283.735" y="513.473" fill="#B2B2B2" width="45.865" height="8.667"/>
<rect x="170.877" y="338.317" fill="#7CAFF7" width="271.582" height="157.458"/>
<path fill="#4D4D4D" d="M280.977,344.605c-0.902,0.902-2.364,0.902-3.266,0s-0.902-2.364,0-3.266c0.902-0.901,2.364-0.901,3.266,0
	C281.878,342.241,281.877,343.704,280.977,344.605"/>
<path fill="#999999" d="M279.784,343.414c-0.243,0.243-0.638,0.244-0.882,0c-0.243-0.244-0.243-0.638,0-0.882
	c0.244-0.243,0.639-0.243,0.882,0C280.028,342.775,280.027,343.169,279.784,343.414"/>
<g>
	<defs>
		<rect id="SVGID_1_" x="277.71" y="341.34" width="3.942" height="3.943"/>
	</defs>
	<clipPath id="SVGID_2_">
		<use xlink:href="#SVGID_1_"  overflow="visible"/>
	</clipPath>
	<path clip-path="url(#SVGID_2_)" fill="#4D4D4D" d="M280.977,341.339l-3.266,3.267c0.902,0.901,2.364,0.901,3.266-0.001
		C281.877,343.703,281.878,342.241,280.977,341.339"/>
</g>
<rect x="206.992" y="274.86" fill="#423530" width="199.353" height="199.542"/>
<path fill="#66806C" d="M399.844,257.164H213.493c-3.59,0-6.501,2.911-6.501,6.5v11.196h199.353v-11.196
	C406.345,260.075,403.435,257.164,399.844,257.164"/>
<path fill="#BEBFBF" d="M378.92,266.492c0,1.396-1.132,2.528-2.527,2.528c-1.396,0-2.528-1.132-2.528-2.528s1.132-2.528,2.528-2.528
	C377.788,263.964,378.92,265.096,378.92,266.492"/>
<path fill="#BEBFBF" d="M387.046,266.492c0,1.396-1.133,2.528-2.528,2.528s-2.527-1.132-2.527-2.528s1.132-2.528,2.527-2.528
	S387.046,265.096,387.046,266.492"/>
<path fill="#BEBFBF" d="M395.171,266.492c0,1.396-1.132,2.528-2.527,2.528s-2.527-1.132-2.527-2.528s1.132-2.528,2.527-2.528
	S395.171,265.096,395.171,266.492"/>
<rect x="220.717" y="292.199" fill="#358A57" width="93.113" height="6.405"/>
<rect x="239.438" y="306.979" fill="#F4B500" width="136.955" height="6.405"/>
<rect x="239.438" y="321.759" fill="#F4B500" width="50.005" height="6.405"/>
<rect x="220.715" y="336.54" fill="#358A57" width="77.842" height="6.404"/>
<rect x="239.437" y="351.32" fill="#F4B500" width="82.523" height="6.404"/>
<rect x="272.201" y="366.101" fill="#E74032" width="77.194" height="6.404"/>
<rect x="254.232" y="380.879" fill="#5B82C5" width="109.662" height="6.406"/>
<rect x="254.218" y="395.66" fill="#5B82C5" width="54.439" height="6.404"/>
<rect x="272.201" y="410.44" fill="#E74032" width="45.571" height="6.404"/>
<rect x="220.717" y="425.221" fill="#358A57" width="62.322" height="6.404"/>
<rect x="239.437" y="440.002" fill="#F4B500" width="104.458" height="6.402"/>
<path fill="#FFFFFF" d="M526.375,216.763h-54.441c-5.281,0-9.563,4.282-9.563,9.564v80.588c0,5.283,4.282,9.564,9.563,9.564h41.02
	l22.985-22.471v-67.681C535.938,221.045,531.656,216.763,526.375,216.763"/>
<path fill="#E6E6E6" d="M512.953,304.708v11.771l22.985-22.471h-14.478C514.653,294.008,512.953,298.386,512.953,304.708"/>
<path fill="#F4B500" d="M527.031,223.896h-55.754c-1.276,0-2.311,1.035-2.311,2.311v26.384c0,1.276,1.034,2.31,2.311,2.31h55.754
	c1.276,0,2.31-1.034,2.31-2.31v-26.384C529.341,224.931,528.308,223.896,527.031,223.896"/>
<rect x="474.823" y="261.141" fill="#3A2E2C" width="48.663" height="4.091"/>
<rect x="474.823" y="271.071" fill="#3A2E2C" width="48.663" height="4.091"/>
<rect x="474.823" y="281" fill="#3A2E2C" width="48.663" height="4.091"/>
<rect x="474.822" y="290.931" fill="#3A2E2C" width="30.895" height="4.091"/>
<rect x="474.822" y="300.86" fill="#3A2E2C" width="30.895" height="4.091"/>
<path fill="#FFFFFF" d="M606.673,167.575h-45.771c-4.438,0-8.038,3.601-8.038,8.041v67.75c0,4.44,3.6,8.04,8.038,8.04h34.486
	l19.323-18.892v-56.898C614.712,171.176,611.113,167.575,606.673,167.575"/>
<path fill="#E6E6E6" d="M595.389,241.51v9.896l19.323-18.892h-12.171C596.818,232.514,595.389,236.195,595.389,241.51"/>
<path fill="#838BC5" d="M610.611,173.572h-53.646c-1.229,0-2.222,0.87-2.222,1.943v22.181c0,1.073,0.993,1.942,2.222,1.942h53.646
	c1.227,0,2.222-0.869,2.222-1.942v-22.181C612.833,174.442,611.838,173.572,610.611,173.572"/>
<rect x="563.334" y="204.884" fill="#3A2E2C" width="40.909" height="3.439"/>
<rect x="563.334" y="213.231" fill="#3A2E2C" width="40.909" height="3.439"/>
<rect x="563.334" y="221.58" fill="#3A2E2C" width="40.909" height="3.439"/>
<rect x="563.332" y="229.928" fill="#3A2E2C" width="25.973" height="3.439"/>
<rect x="563.332" y="238.275" fill="#3A2E2C" width="25.973" height="3.439"/>
<path fill="#FFFFFF" d="M109.514,300.126H35.116c-7.219,0-13.071,5.853-13.071,13.072v110.131c0,7.218,5.852,13.07,13.071,13.07
	h56.056l31.412-30.71v-92.491C122.583,305.979,116.731,300.126,109.514,300.126"/>
<path fill="#E6E6E6" d="M91.172,420.312v16.088l31.412-30.71h-19.785C93.495,405.689,91.172,411.672,91.172,420.312"/>
<path fill="#F15A24" d="M110.412,309.874H34.218c-1.744,0-3.158,1.415-3.158,3.158v36.057c0,1.744,1.414,3.158,3.158,3.158h76.194
	c1.744,0,3.156-1.414,3.156-3.158v-36.057C113.567,311.289,112.156,309.874,110.412,309.874"/>
<rect x="39.064" y="360.774" fill="#3A2E2C" width="66.501" height="5.591"/>
<rect x="39.064" y="374.344" fill="#3A2E2C" width="66.501" height="5.591"/>
<rect x="39.064" y="387.914" fill="#3A2E2C" width="66.501" height="5.591"/>
<rect x="39.064" y="401.485" fill="#3A2E2C" width="42.218" height="5.589"/>
<rect x="39.064" y="415.054" fill="#3A2E2C" width="42.218" height="5.592"/>
<path fill="#FFFFFF" d="M93.912,468.191h-47.4c-4.599,0-8.327,3.729-8.327,8.328v70.165c0,4.599,3.728,8.327,8.327,8.327h35.714
	l20.012-19.565V476.52C102.238,471.921,98.51,468.191,93.912,468.191"/>
<path fill="#E6E6E6" d="M82.226,544.763v10.249l20.012-19.565H89.634C83.705,535.446,82.226,539.258,82.226,544.763"/>
<path fill="#C7B299" d="M94.483,474.402H45.94c-1.112,0-2.012,0.9-2.012,2.014v22.969c0,1.113,0.9,2.014,2.012,2.014h48.543
	c1.111,0,2.012-0.9,2.012-2.014v-22.969C96.495,475.303,95.594,474.402,94.483,474.402"/>
<rect x="49.026" y="506.831" fill="#3A2E2C" width="42.369" height="3.563"/>
<rect x="49.026" y="515.476" fill="#3A2E2C" width="42.369" height="3.562"/>
<rect x="49.026" y="524.121" fill="#3A2E2C" width="42.369" height="3.563"/>
<rect x="49.026" y="532.768" fill="#3A2E2C" width="26.898" height="3.561"/>
<rect x="49.026" y="541.413" fill="#3A2E2C" width="26.898" height="3.561"/>
<path fill="#FFFFFF" d="M161.35,143.535H89.858c-6.936,0-12.559,5.624-12.559,12.561v105.829c0,6.935,5.623,12.559,12.559,12.559
	h53.867l30.184-29.51v-88.878C173.909,149.159,168.286,143.535,161.35,143.535"/>
<path fill="#E6E6E6" d="M143.725,259.025v15.459l30.184-29.51h-19.011C145.957,244.975,143.725,250.723,143.725,259.025"/>
<path fill="#29C77A" d="M162.213,152.902H88.996c-1.677,0-3.034,1.359-3.034,3.036v34.647c0,1.676,1.357,3.035,3.034,3.035h73.217
	c1.675,0,3.033-1.359,3.033-3.035v-34.648C165.246,154.261,163.888,152.902,162.213,152.902"/>
<rect x="93.652" y="201.813" fill="#3A2E2C" width="63.904" height="5.373"/>
<rect x="93.653" y="214.854" fill="#3A2E2C" width="63.904" height="5.372"/>
<rect x="93.653" y="227.893" fill="#3A2E2C" width="63.904" height="5.372"/>
<rect x="93.653" y="240.934" fill="#3A2E2C" width="40.569" height="5.371"/>
<rect x="93.653" y="253.973" fill="#3A2E2C" width="40.569" height="5.373"/>
<path fill="#FCEE21" d="M302.696,33.23v60.516c0,3.291,2.667,5.959,5.959,5.959h92.615c3.291,0,5.958-2.668,5.958-5.959V33.23
	H302.696z"/>
<path fill="#E5D223" d="M302.696,81.033v12.713c0,3.291,2.667,5.959,5.959,5.959h92.615c3.291,0,5.958-2.668,5.958-5.959V81.033
	H302.696z"/>
<path fill="#E5D11F" d="M334.998,25.558h-23.438c-8.333,0-8.864,7.673-8.864,7.673h41.167
	C343.863,33.23,343.331,25.558,334.998,25.558"/>
<path fill="#FFFFFF" d="M415.632,49.513h-70.338c-2.077,0-3.762,1.685-3.762,3.762v60.033c0,2.078,1.685,3.762,3.762,3.762h70.338
	c2.078,0,3.763-1.684,3.763-3.762V53.275C419.395,51.198,417.71,49.513,415.632,49.513"/>
<path fill="#423530" d="M419.395,62.926v-9.651c0-2.078-1.686-3.762-3.763-3.762h-70.338c-2.077,0-3.762,1.684-3.762,3.762v9.651
	H419.395z"/>
<path fill="#4D4D4D" d="M351.51,56.219c0,1.626-1.318,2.944-2.944,2.944c-1.625,0-2.944-1.318-2.944-2.944s1.319-2.944,2.944-2.944
	C350.191,53.275,351.51,54.593,351.51,56.219"/>
<path fill="#4D4D4D" d="M360.507,56.219c0,1.626-1.318,2.944-2.944,2.944s-2.944-1.318-2.944-2.944s1.318-2.944,2.944-2.944
	S360.507,54.593,360.507,56.219"/>
<path fill="#4D4D4D" d="M369.504,56.219c0,1.626-1.319,2.944-2.944,2.944c-1.626,0-2.944-1.318-2.944-2.944s1.318-2.944,2.944-2.944
	C368.185,53.275,369.504,54.593,369.504,56.219"/>
<rect x="346.141" y="70.341" fill="#F4B500" width="68.646" height="4.145"/>
<rect x="346.141" y="81.764" fill="#838BC5" width="68.646" height="4.145"/>
<rect x="346.141" y="93.187" fill="#29C77A" width="68.646" height="4.145"/>
<rect x="346.141" y="104.609" fill="#F15A24" width="68.646" height="4.146"/>
<rect x="306.895" y="29.394" fill="#FFFFFF" width="97.75" height="3.836"/>
<path fill="#F15A24" d="M243.543,81.033c0-21.049-17.063-38.112-38.111-38.112c-21.05,0-38.114,17.063-38.114,38.112
	s17.064,38.112,38.114,38.112c2.96,0,5.837-0.348,8.604-0.987l-0.005,0.011l13.831,3.824l-0.25-9.965l-0.01-0.005
	C237.25,105.108,243.543,93.809,243.543,81.033"/>
<g>
	<defs>
		<rect id="SVGID_3_" x="167.318" y="81.034" width="76.224" height="40.96"/>
	</defs>
	<clipPath id="SVGID_4_">
		<use xlink:href="#SVGID_3_"  overflow="visible"/>
	</clipPath>
	<path clip-path="url(#SVGID_4_)" fill="#E04A1B" d="M205.432,119.146c2.96,0,5.837-0.349,8.604-0.987l-0.004,0.011l13.831,3.824
		l-0.25-9.965l-0.011-0.005c9.648-6.915,15.941-18.214,15.941-30.99h-76.224C167.319,102.083,184.382,119.146,205.432,119.146"/>
</g>
<path fill="#4D4D4D" d="M277.901,198.336c0-0.08,0.012-0.158,0.012-0.238c0-17.518-14.201-31.719-31.72-31.719
	c-17.518,0-31.719,14.201-31.719,31.719c0,0.08,0.012,0.158,0.012,0.238H277.901z"/>
<path fill="#E5C7B1" d="M244.037,166.46c-0.416,0.028-0.83,0.058-1.241,0.103c-0.158,0.016-0.314,0.04-0.471,0.06
	c-0.406,0.049-0.811,0.101-1.212,0.166c-0.14,0.023-0.278,0.05-0.418,0.075c-0.42,0.074-0.839,0.152-1.253,0.242
	c-0.113,0.025-0.225,0.053-0.338,0.078c-0.442,0.102-0.881,0.21-1.316,0.33c-0.083,0.023-0.166,0.047-0.25,0.071
	c-0.465,0.131-0.926,0.272-1.382,0.425c-0.054,0.018-0.107,0.036-0.16,0.054c-0.487,0.166-0.969,0.342-1.445,0.53
	c-0.025,0.011-0.051,0.02-0.077,0.031c-0.504,0.201-1.003,0.414-1.495,0.639c2.108,5.236,7.225,8.937,13.215,8.937
	c5.99,0,11.108-3.7,13.215-8.937c-0.492-0.225-0.99-0.438-1.495-0.639c-0.025-0.011-0.051-0.02-0.077-0.031
	c-0.476-0.188-0.958-0.364-1.445-0.53c-0.053-0.018-0.105-0.036-0.159-0.054c-0.456-0.153-0.918-0.294-1.383-0.425
	c-0.084-0.024-0.167-0.048-0.25-0.071c-0.435-0.12-0.874-0.228-1.315-0.33c-0.113-0.025-0.226-0.053-0.339-0.078
	c-0.414-0.09-0.833-0.168-1.253-0.242c-0.139-0.025-0.278-0.052-0.417-0.075c-0.401-0.065-0.806-0.117-1.212-0.166
	c-0.157-0.02-0.313-0.044-0.471-0.06c-0.411-0.045-0.826-0.075-1.242-0.103c-0.151-0.01-0.3-0.026-0.452-0.034
	c-0.565-0.03-1.133-0.047-1.705-0.047c-0.572,0-1.14,0.017-1.705,0.047C244.337,166.434,244.188,166.45,244.037,166.46"/>
<path fill="#F0D0B4" d="M263.283,153.779c0,9.438-7.651,17.089-17.089,17.089s-17.089-7.651-17.089-17.089
	s7.651-17.089,17.089-17.089S263.283,144.341,263.283,153.779"/>
<g>
	<defs>
		<rect id="SVGID_5_" x="227.104" y="188.439" width="2" height="9.896"/>
	</defs>
	<clipPath id="SVGID_6_">
		<use xlink:href="#SVGID_5_"  overflow="visible"/>
	</clipPath>
	<path clip-path="url(#SVGID_6_)" fill="#4D4D4D" d="M229.105,198.336h-2v-6.521c0-2.75,2-3.375,2-3.375V198.336z"/>
</g>
<g>
	<defs>
		<rect id="SVGID_7_" x="264.229" y="188.439" width="2" height="9.896"/>
	</defs>
	<clipPath id="SVGID_8_">
		<use xlink:href="#SVGID_7_"  overflow="visible"/>
	</clipPath>
	<path clip-path="url(#SVGID_8_)" fill="#4D4D4D" d="M266.23,198.336h-2v-9.896c0,0,2,0.625,2,3.375V198.336z"/>
</g>
<g>
	<defs>
		<rect id="SVGID_9_" x="246.193" y="136.689" width="17.089" height="34.178"/>
	</defs>
	<clipPath id="SVGID_10_">
		<use xlink:href="#SVGID_9_"  overflow="visible"/>
	</clipPath>
	<path clip-path="url(#SVGID_10_)" fill="#ECC19C" d="M246.194,136.69v34.178c9.438,0,17.089-7.651,17.089-17.089
		S255.632,136.69,246.194,136.69"/>
</g>
<path fill="#3E1D15" d="M230.021,159.607c0,0,2.503-1.276,1.25-5.539c0,0,3.511-6.769,2.508-9.025
	c-1.004-2.257,7.132-3.163,9.025-2.508c1.892,0.655,3.425,2.048,5.208,2.048c1.782,0,2.468-1.692,3.842-1.643
	c1.375,0.049,5.975,0.102,8.356,3.355c3.644,4.979,1.897,13.538,1.897,13.538c1.253,0.752,4.764-7.647,4.764-7.647
	s1.253-6.142-1.004-9.651c0,0-0.001-7.772-1.755-9.777c-1.754-2.005-14.29-8.522-24.568-5.013
	c-10.278,3.509-12.362,9.781-11.856,13.112s-1.503,8.592-0.751,10.597S230.021,159.607,230.021,159.607"/>
<g>
	<defs>
		<rect id="SVGID_11_" x="246.193" y="126.73" width="31.72" height="71.605"/>
	</defs>
	<clipPath id="SVGID_12_">
		<use xlink:href="#SVGID_11_"  overflow="visible"/>
	</clipPath>
	<path clip-path="url(#SVGID_12_)" fill="#999999" d="M256.397,168.066c-0.001,0-0.003-0.001-0.005-0.002
		c-0.024-0.008-0.049-0.017-0.074-0.025c-0.158-0.053-0.315-0.11-0.475-0.16c2.852-1.956,5.066-4.758,6.313-8.039
		c1.29,0.535,4.716-7.654,4.716-7.654s1.252-6.141-1.004-9.651c0,0-0.002-7.772-1.756-9.777c-1.385-1.584-9.503-5.981-17.918-6.027
		v71.605h18.036h2h11.671c0-0.08,0.012-0.158,0.012-0.238C277.913,184.151,268.908,172.316,256.397,168.066"/>
</g>
<path fill="#534741" d="M483.476,117.179h-38.108c-1.766,0-3.196,1.431-3.196,3.196v24.697c0,1.765,1.431,3.195,3.196,3.195h38.108
	c1.766,0,3.196-1.43,3.196-3.195v-24.697C486.672,118.61,485.241,117.179,483.476,117.179"/>
<path fill="#736357" d="M442.171,133.905v11.167c0,1.765,1.431,3.196,3.196,3.196h38.108c1.766,0,3.196-1.431,3.196-3.196v-11.167
	H442.171z"/>
<path fill="#FFFFFF" d="M462.469,132.287l-7.505,5.929c-0.105,0.079-0.238,0.132-0.426,0.132c-0.402,0-0.722-0.319-0.722-0.721
	c0-0.213,0.08-0.427,0.294-0.587l6.942-5.368l-6.942-5.367c-0.214-0.161-0.294-0.374-0.294-0.588c0-0.401,0.319-0.721,0.722-0.721
	c0.188,0,0.32,0.053,0.426,0.134l7.505,5.928c0.187,0.134,0.348,0.321,0.348,0.614C462.816,131.966,462.655,132.153,462.469,132.287
	"/>
<path fill="#FFFFFF" d="M474.305,140.539h-10.521c-0.401,0-0.721-0.32-0.721-0.722c0-0.4,0.319-0.72,0.721-0.72h10.521
	c0.402,0,0.722,0.32,0.722,0.72C475.026,140.219,474.707,140.539,474.305,140.539"/>
<path fill="#E6E6E6" d="M309.419,226.398c0,3.793,3.074,6.867,6.868,6.867h81.884c3.793,0,6.867-3.074,6.867-6.867v-61.889h-95.619
	V226.398z"/>
<path fill="#A1C739" d="M405.038,164.509v-7.328c0-3.793-3.074-6.868-6.867-6.868h-81.884c-3.794,0-6.868,3.075-6.868,6.868v7.328
	H405.038z"/>
<path fill="#333333" d="M330.145,178.011c0,2.899-2.35,5.25-5.25,5.25c-2.898,0-5.25-2.351-5.25-5.25s2.352-5.25,5.25-5.25
	C327.795,172.761,330.145,175.112,330.145,178.011"/>
<path fill-rule="evenodd" clip-rule="evenodd" fill="#F15A24" d="M320.957,177.263l1.34-1.101l2.816,2.993
	c1.984-1.788,8.221-8.287,8.221-8.287l1.326,1.279l-9.545,9.547C323.77,180.17,322.35,178.84,320.957,177.263"/>
<rect x="341.391" y="175.262" fill-rule="evenodd" clip-rule="evenodd" fill="#CCCCCC" width="53.422" height="6.432"/>
<path fill="#333333" d="M330.145,197.871c0,2.899-2.35,5.25-5.25,5.25c-2.898,0-5.25-2.351-5.25-5.25s2.352-5.25,5.25-5.25
	C327.795,192.621,330.145,194.972,330.145,197.871"/>
<path fill-rule="evenodd" clip-rule="evenodd" fill="#F15A24" d="M320.957,197.122l1.34-1.101l2.816,2.993
	c1.984-1.788,8.221-8.287,8.221-8.287l1.326,1.279l-9.545,9.547C323.77,200.029,322.35,198.699,320.957,197.122"/>
<rect x="341.391" y="195.121" fill-rule="evenodd" clip-rule="evenodd" fill="#CCCCCC" width="53.422" height="6.432"/>
<path fill="#333333" d="M330.145,217.73c0,2.899-2.35,5.25-5.25,5.25c-2.898,0-5.25-2.351-5.25-5.25s2.352-5.25,5.25-5.25
	C327.795,212.48,330.145,214.831,330.145,217.73"/>
<path fill-rule="evenodd" clip-rule="evenodd" fill="#F15A24" d="M320.957,216.981l1.34-1.101l2.816,2.993
	c1.984-1.788,8.221-8.287,8.221-8.287l1.326,1.279l-9.545,9.547C323.77,219.889,322.35,218.559,320.957,216.981"/>
<rect x="341.391" y="214.979" fill-rule="evenodd" clip-rule="evenodd" fill="#CCCCCC" width="53.422" height="6.432"/>
<g>
	<defs>
		<rect id="SVGID_13_" x="314.896" y="153.881" width="9.499" height="1.846"/>
	</defs>
	<clipPath id="SVGID_14_">
		<use xlink:href="#SVGID_13_"  overflow="visible"/>
	</clipPath>
	<rect x="314.896" y="153.881" clip-path="url(#SVGID_14_)" fill="#A1C739" width="9.499" height="1.846"/>
</g>
<g>
	<defs>
		<rect id="SVGID_15_" x="314.896" y="156.65" width="9.499" height="1.845"/>
	</defs>
	<clipPath id="SVGID_16_">
		<use xlink:href="#SVGID_15_"  overflow="visible"/>
	</clipPath>
	<rect x="314.896" y="156.649" clip-path="url(#SVGID_16_)" fill="#A1C739" width="9.499" height="1.846"/>
</g>
<g>
	<defs>
		<rect id="SVGID_17_" x="314.896" y="159.419" width="9.499" height="1.846"/>
	</defs>
	<clipPath id="SVGID_18_">
		<use xlink:href="#SVGID_17_"  overflow="visible"/>
	</clipPath>
	<rect x="314.896" y="159.419" clip-path="url(#SVGID_18_)" fill="#A1C739" width="9.499" height="1.846"/>
</g>
<path fill="#FFFFFF" d="M475.061,185.558c0,8.625-6.992,15.617-15.617,15.617s-15.617-6.992-15.617-15.617
	s6.992-15.617,15.617-15.617S475.061,176.933,475.061,185.558"/>
<path fill="#D1D1D1" d="M443.826,185.559c0,8.625,6.992,15.617,15.617,15.617s15.617-6.992,15.617-15.617H443.826z"/>
<path fill="#4D4D4D" d="M463.295,184.395l-7.9-5.087l0.379,9.38l2.431-1.388l3.298,5.777c0.188,0.327,0.605,0.442,0.934,0.254
	l1.47-0.84c0.327-0.187,0.444-0.605,0.256-0.932l-3.298-5.775L463.295,184.395z"/>
<path fill="#DB362E" d="M267.474,235.903h4.67c1.366,0,2.472-1.106,2.472-2.472v-9.321c0-1.366-1.106-2.472-2.472-2.472h-4.67
	V235.903z"/>
<rect x="227.505" y="221.638" fill="#FBB03B" width="34.885" height="14.265"/>
<rect x="262.392" y="221.638" fill="#B3B3B3" width="5.083" height="14.265"/>
<rect x="263.521" y="221.638" fill="#999999" width="0.848" height="14.265"/>
<rect x="265.498" y="221.638" fill="#999999" width="0.847" height="14.265"/>
<polygon fill="#C69C6D" points="217.423,226.874 217.423,230.667 227.506,235.902 227.506,221.638 "/>
<polygon fill="#1A1A1A" points="217.423,226.874 213.771,228.771 217.423,230.667 "/>
<g>
	<defs>
		<rect id="SVGID_19_" x="213.771" y="221.638" width="60.846" height="7.133"/>
	</defs>
	<clipPath id="SVGID_20_">
		<use xlink:href="#SVGID_19_"  overflow="visible"/>
	</clipPath>
	<path clip-path="url(#SVGID_20_)" fill="#808080" d="M217.423,226.874l-3.652,1.897h60.845v-4.661c0-1.365-1.106-2.472-2.471-2.472
		h-4.671h-1.129h-0.847h-1.13h-0.847h-1.13h-34.885L217.423,226.874z"/>
</g>
<path fill="#E6E6E6" d="M601.577,328.267h-78.773c-5.695,0-10.313,4.617-10.313,10.313v118.633c0,5.695,4.617,10.313,10.313,10.313
	h78.773c5.696,0,10.313-4.617,10.313-10.313V338.58C611.891,332.884,607.273,328.267,601.577,328.267"/>
<path fill="#3586F8" d="M611.89,371.532v-32.953c0-5.696-4.616-10.313-10.313-10.313h-78.772c-5.695,0-10.313,4.617-10.313,10.313
	v32.953H611.89z"/>
<rect x="522.229" y="380.922" fill="#4D4D4D" width="78.667" height="6.677"/>
<rect x="522.229" y="397.896" fill="#4D4D4D" width="78.667" height="6.677"/>
<rect x="522.229" y="414.868" fill="#4D4D4D" width="78.667" height="6.678"/>
<rect x="522.229" y="431.843" fill="#4D4D4D" width="78.667" height="6.677"/>
<rect x="522.229" y="448.816" fill="#4D4D4D" width="48.667" height="6.677"/>
<path fill="#4D4D4D" d="M576.794,452.154c0,1.844,1.494,3.339,3.338,3.339s3.339-1.495,3.339-3.339s-1.495-3.338-3.339-3.338
	S576.794,450.311,576.794,452.154"/>
<rect x="610.344" y="436.682" transform="matrix(0.9149 -0.4036 0.4036 0.9149 -129.2852 286.1963)" fill="#FFFFFF" width="7.966" height="26.262"/>
<g>
	<defs>
		<rect id="SVGID_21_" x="605.383" y="436.191" width="10.59" height="10.699"/>
	</defs>
	<clipPath id="SVGID_22_">
		<use xlink:href="#SVGID_21_"  overflow="visible"/>
	</clipPath>
	
		<rect x="606.694" y="437.451" transform="matrix(0.9149 -0.4036 0.4036 0.9149 -126.2571 284.0198)" clip-path="url(#SVGID_22_)" fill="#999999" width="7.966" height="8.18"/>
</g>
<path fill="#5B82C5" d="M625.444,405.689c-6.237-14.142-22.754-20.547-36.896-14.31c-14.14,6.236-20.544,22.756-14.307,36.896
	c6.238,14.14,22.755,20.546,36.894,14.309C625.278,436.346,631.683,419.827,625.444,405.689 M608.363,436.293
	c-10.665,4.705-23.127-0.127-27.832-10.792c-4.704-10.665,0.128-23.127,10.794-27.831c10.664-4.704,23.126,0.127,27.832,10.792
	C623.86,419.129,619.028,431.59,608.363,436.293"/>
<g>
	<defs>
		<rect id="SVGID_23_" x="578.73" y="395.869" width="42.227" height="42.225"/>
	</defs>
	<clipPath id="SVGID_24_">
		<use xlink:href="#SVGID_23_"  overflow="visible"/>
	</clipPath>
	<path clip-path="url(#SVGID_24_)" fill="#FFFFFF" d="M619.157,408.462c4.703,10.667-0.129,23.128-10.794,27.831
		c-10.665,4.705-23.127-0.127-27.832-10.792c-4.704-10.665,0.128-23.127,10.794-27.831
		C601.989,392.966,614.451,397.797,619.157,408.462"/>
</g>
<path fill="#4B72AA" d="M622.26,407.093c-5.463-12.379-19.926-17.988-32.305-12.528c-12.38,5.463-17.988,19.926-12.528,32.307
	c5.46,12.379,19.926,17.987,32.306,12.525C622.112,433.937,627.721,419.473,622.26,407.093 M608.363,436.293
	c-10.665,4.705-23.127-0.127-27.832-10.792c-4.704-10.665,0.128-23.127,10.794-27.831c10.664-4.704,23.126,0.127,27.832,10.792
	C623.86,419.129,619.028,431.59,608.363,436.293"/>
<g>
	<defs>
		<rect id="SVGID_25_" x="591.751" y="399.955" width="23.909" height="12.707"/>
	</defs>
	<clipPath id="SVGID_26_">
		<use xlink:href="#SVGID_25_"  overflow="visible"/>
	</clipPath>
	<path clip-path="url(#SVGID_26_)" fill="#808080" d="M612.22,411.521c0,0,0.838,1.68,2.462,0.962
		c1.625-0.717,0.735-2.371,0.735-2.371c-3.795-8.604-13.844-12.499-22.443-8.704c0,0-1.782,0.621-1.044,2.295
		c0.738,1.675,2.453,0.9,2.453,0.9C601.219,401.589,609.206,404.685,612.22,411.521"/>
</g>
<path fill="#E5252F" d="M610.243,456.554l15.702,35.596c1.442,3.265,5.252,4.743,8.517,3.304c3.262-1.439,4.74-5.252,3.3-8.516
	l-15.703-35.596L610.243,456.554z"/>
<g>
	<defs>
		<rect id="SVGID_27_" x="616.151" y="451.342" width="22.162" height="44.111"/>
	</defs>
	<clipPath id="SVGID_28_">
		<use xlink:href="#SVGID_27_"  overflow="visible"/>
	</clipPath>
	<path clip-path="url(#SVGID_28_)" fill="#E5252F" d="M616.151,453.947l18.311,41.506c3.263-1.439,4.74-5.252,3.3-8.516
		l-15.702-35.596L616.151,453.947z"/>
</g>
<path fill="#FFFFFF" d="M584.506,530.891c0,17.197-13.941,31.139-31.139,31.139s-31.139-13.941-31.139-31.139
	s13.941-31.139,31.139-31.139S584.506,513.693,584.506,530.891"/>
<g>
	<defs>
		<rect id="SVGID_29_" x="554.073" y="514.024" width="30.433" height="46.53"/>
	</defs>
	<clipPath id="SVGID_30_">
		<use xlink:href="#SVGID_29_"  overflow="visible"/>
	</clipPath>
	<path clip-path="url(#SVGID_30_)" fill="#CCCCCC" d="M584.506,530.891c0,12.262-7.088,22.868-17.389,27.946
		c-1.364,0.673-2.785,1.248-4.254,1.718l-8.79-6.72c0,0,9.696-40.57,8.926-39.8L584.506,530.891z"/>
</g>
<path fill="#8CC63F" d="M563.168,534.876v-19.709c0-2.146-1.741-3.889-3.889-3.889h-10.411c-2.147,0-3.889,1.742-3.889,3.889v19.709
	h-6.539l15.633,18.959l14.22-18.959H563.168z"/>
<g>
	<defs>
		<rect id="SVGID_31_" x="554.073" y="511.278" width="14.22" height="42.557"/>
	</defs>
	<clipPath id="SVGID_32_">
		<use xlink:href="#SVGID_31_"  overflow="visible"/>
	</clipPath>
	<path clip-path="url(#SVGID_32_)" fill="#8CC63F" d="M563.168,534.876v-19.709c0-2.146-1.741-3.889-3.889-3.889h-5.206v42.557
		l14.22-18.959H563.168z"/>
</g>
<path fill="#4D4D4D" d="M551.084,74.013c-0.436,0.435-1.14,0.435-1.574,0c-0.437-0.436-0.437-1.14,0-1.575
	c0.433-0.436,1.139-0.436,1.574,0C551.52,72.873,551.518,73.577,551.084,74.013"/>
<path fill="#999999" d="M550.509,73.438c-0.118,0.117-0.308,0.117-0.425,0c-0.118-0.119-0.118-0.309,0-0.426
	c0.117-0.117,0.307-0.117,0.425,0C550.626,73.129,550.626,73.319,550.509,73.438"/>
<g>
	<defs>
		<rect id="SVGID_33_" x="549.51" y="72.438" width="1.9" height="1.9"/>
	</defs>
	<clipPath id="SVGID_34_">
		<use xlink:href="#SVGID_33_"  overflow="visible"/>
	</clipPath>
	<path clip-path="url(#SVGID_34_)" fill="#4D4D4D" d="M551.084,72.438l-1.574,1.575c0.435,0.434,1.139,0.434,1.574,0
		C551.518,73.578,551.52,72.874,551.084,72.438"/>
</g>
<rect x="515.408" y="40.382" fill="#4D4D4D" width="96.128" height="86.115"/>
<path fill="#FFFFFF" d="M608.401,31.849h-89.858c-1.731,0-3.135,1.403-3.135,3.135v5.398h96.128v-5.398
	C611.536,33.251,610.132,31.849,608.401,31.849"/>
<path fill="#BEBFBF" d="M598.312,36.346c0,0.673-0.546,1.219-1.219,1.219s-1.22-0.546-1.22-1.219c0-0.672,0.547-1.22,1.22-1.22
	S598.312,35.674,598.312,36.346"/>
<path fill="#BEBFBF" d="M602.229,36.346c0,0.673-0.546,1.219-1.22,1.219c-0.672,0-1.219-0.546-1.219-1.219
	c0-0.672,0.547-1.22,1.219-1.22C601.684,35.126,602.229,35.674,602.229,36.346"/>
<path fill="#BEBFBF" d="M606.148,36.346c0,0.673-0.547,1.219-1.22,1.219s-1.219-0.546-1.219-1.219c0-0.672,0.546-1.22,1.219-1.22
	S606.148,35.674,606.148,36.346"/>
<rect x="522.025" y="48.743" fill="#E74032" width="28.271" height="3.088"/>
<rect x="531.055" y="55.869" fill="#F4B500" width="56.496" height="3.089"/>
<rect x="531.055" y="62.997" fill="#F4B500" width="24.111" height="3.088"/>
<rect x="522.026" y="70.123" fill="#E74032" width="52.986" height="3.088"/>
<rect x="531.055" y="77.25" fill="#F4B500" width="51.532" height="3.088"/>
<rect x="546.853" y="84.376" fill="#E74032" width="50.239" height="3.088"/>
<rect x="538.188" y="91.504" fill="#F4B500" width="52.879" height="3.089"/>
<rect x="538.181" y="98.631" fill="#F4B500" width="26.25" height="3.088"/>
<rect x="546.853" y="105.759" fill="#E74032" width="9.387" height="3.088"/>
<rect x="522.026" y="112.885" fill="#E74032" width="12.482" height="3.088"/>
<rect x="578.066" y="70.123" fill="#358A57" width="12.217" height="3.088"/>
<rect x="568.264" y="98.631" fill="#358A57" width="26.519" height="3.088"/>
<rect x="559.303" y="105.759" fill="#358A57" width="15.71" height="3.088"/>
<rect x="538.181" y="112.885" fill="#358A57" width="23.492" height="3.088"/>
<text transform="matrix(1 0 0 1 559.2275 191.8911)" fill="#FFFFFF" font-family="'MyriadPro-Regular'" font-size="15">OBJECT</text>
<text transform="matrix(1 0 0 1 481.2275 246.5581)" fill="#FFFFFF" font-family="'MyriadPro-Regular'" font-size="19">ASM</text>
<path fill="#FFFFFF" d="M189.632,81.43c0-12.726,6.398-18.846,16.919-18.846c5.154,0,9.655,2.203,12.203,5.691
	c0.273,0.377,0.382,0.752,0.382,1.129c0,0.965-0.761,1.718-1.737,1.718c-0.488,0-0.976-0.164-1.41-0.698
	c-1.844-2.524-5.37-4.511-9.438-4.511c-8.35,0-13.125,4.995-13.125,15.517c0,11.168,4.775,15.465,13.125,15.465
	c3.58,0,7.322-1.398,9.438-4.402c0.379-0.54,0.976-0.698,1.41-0.698c0.976,0,1.737,0.749,1.737,1.718
	c0,0.428-0.109,0.697-0.327,1.018c-2.387,3.438-7.269,5.694-12.259,5.694C196.03,100.225,189.632,94.639,189.632,81.43"/>
<text transform="matrix(1 0 0 1 316.8936 161.5581)" fill="#FFFFFF" font-family="'MyriadPro-Bold'" font-size="10" letter-spacing="2">PERSISTANCE</text>
<text transform="matrix(1 0 0 1 212.8936 269.8916)" fill="#FFFFFF" font-family="'MyriadPro-Bold'" font-size="12">VIRTUAL MACHINE</text>
<text transform="matrix(1 0 0 1 53.2271 493.8916)" fill="#FFFFFF" font-family="'MyriadPro-Semibold'" font-size="18">Java</text>
<text transform="matrix(1 0 0 1 529.8936 359.2246)" fill="#FFFFFF" font-family="'MyriadPro-Regular'" font-size="24" letter-spacing="2">CODE</text>
<text transform="matrix(1 0 0 1 89.8945 178.5586)" fill="#FFFFFF" font-family="'MyriadPro-Semibold'" font-size="18">Phantom</text>
<text transform="matrix(1 0 0 1 57.2275 338.8916)" fill="#FFFFFF" font-family="'MyriadPro-Semibold'" font-size="21">VM</text>
</svg>
