<?xml version="1.0" encoding="utf-8"?>
<!-- Generator: Adobe Illustrator 15.0.0, SVG Export Plug-In . SVG Version: 6.00 Build 0)  -->
<!DOCTYPE svg PUBLIC "-//W3C//DTD SVG 1.1//EN" "http://www.w3.org/Graphics/SVG/1.1/DTD/svg11.dtd">
<svg version="1.1" id="Layer_1" xmlns="http://www.w3.org/2000/svg" xmlns:xlink="http://www.w3.org/1999/xlink" x="0px" y="0px"
	 width="500px" height="500px" viewBox="0 0 500 500" enable-background="new 0 0 500 500" xml:space="preserve">
<g>
	<defs>
		<polyline id="SVGID_1_" points="0,500 500,500 500,0 0,0 		"/>
	</defs>
	<clipPath id="SVGID_2_">
		<use xlink:href="#SVGID_1_"  overflow="visible"/>
	</clipPath>
	<g clip-path="url(#SVGID_2_)">
		<path fill="#FFFFFF" d="M500.106,395.563c-56.374-9.492-146.963-15.649-249.126-15.649S58.229,386.071,1.854,395.563v45.701
			v35.563h498.637v-81.264H500.106z"/>
		<g opacity="0.1">
			<g>
				<defs>
					<rect id="SVGID_3_" x="1.854" y="392.281" width="498.637" height="84.546"/>
				</defs>
				<clipPath id="SVGID_4_">
					<use xlink:href="#SVGID_3_"  overflow="visible"/>
				</clipPath>
				<path clip-path="url(#SVGID_4_)" fill="#001627" d="M500.106,395.563c-6.681-1.125-13.858-2.201-21.463-3.228
					c0.175,0.854,0.271,1.713,0.271,2.576c0,29.312-101.963,53.072-227.74,53.072c-125.779,0-227.742-23.761-227.742-53.072
					c0-0.882,0.097-1.759,0.28-2.631c-7.753,1.043-15.059,2.138-21.857,3.282v45.701v35.563h498.637v-81.264H500.106z"/>
			</g>
		</g>
		<path fill="#B3C1C6" d="M500.812,477.324c-56.373-4.38-146.963-7.221-249.126-7.221c-102.163,0-192.752,2.841-249.126,7.221
			v21.089V500h498.638v-22.676H500.812z"/>
		<polygon fill="#414074" points="133.624,384.592 116.831,417.241 117.453,422.139 366.862,424.315 366.862,417.785 
			349.446,384.048 		"/>
		<polygon fill="#2D2D51" points="116.831,417.241 117.452,422.138 366.862,424.315 366.862,417.785 		"/>
		<polyline fill="#2D2D51" points="126.538,218.388 364.776,216.086 351.584,371.087 131.194,366.744 122.658,213.916 		"/>
		<polygon fill="#414074" points="123.066,213.841 122.658,213.916 131.194,361.549 351.584,365.891 364.776,216.086 		"/>
		<polygon fill="#FFFFFF" points="131.97,219.733 355.464,221.737 343.286,360.018 139.85,356.01 		"/>
		<g opacity="0.5">
			<g>
				<defs>
					<rect id="SVGID_5_" x="177.42" y="243.265" width="159.98" height="108.73"/>
				</defs>
				<clipPath id="SVGID_6_">
					<use xlink:href="#SVGID_5_"  overflow="visible"/>
				</clipPath>
				<rect x="177.86" y="243.705" clip-path="url(#SVGID_6_)" fill="#FFFFFF" width="159.1" height="107.85"/>
				
					<rect x="177.86" y="243.705" clip-path="url(#SVGID_6_)" fill="none" stroke="#888CF0" stroke-width="0.879" stroke-miterlimit="10" width="159.1" height="107.85"/>
				<rect x="182.517" y="252.225" clip-path="url(#SVGID_6_)" fill="#888CF0" width="8.239" height="3.566"/>
				<rect x="182.517" y="259.063" clip-path="url(#SVGID_6_)" fill="#888CF0" width="8.239" height="3.565"/>
				<rect x="182.517" y="265.899" clip-path="url(#SVGID_6_)" fill="#888CF0" width="8.239" height="3.565"/>
				<rect x="182.517" y="272.736" clip-path="url(#SVGID_6_)" fill="#888CF0" width="8.239" height="3.565"/>
				<rect x="182.517" y="279.574" clip-path="url(#SVGID_6_)" fill="#888CF0" width="8.239" height="3.565"/>
				<rect x="182.517" y="286.411" clip-path="url(#SVGID_6_)" fill="#888CF0" width="8.239" height="3.565"/>
				<rect x="182.517" y="293.248" clip-path="url(#SVGID_6_)" fill="#888CF0" width="8.239" height="3.566"/>
				<rect x="182.517" y="300.085" clip-path="url(#SVGID_6_)" fill="#888CF0" width="8.239" height="3.566"/>
				<rect x="182.517" y="306.923" clip-path="url(#SVGID_6_)" fill="#888CF0" width="8.239" height="3.566"/>
				<rect x="182.517" y="313.761" clip-path="url(#SVGID_6_)" fill="#888CF0" width="8.239" height="3.565"/>
				<rect x="182.517" y="320.597" clip-path="url(#SVGID_6_)" fill="#888CF0" width="8.239" height="3.566"/>
				<rect x="182.517" y="327.435" clip-path="url(#SVGID_6_)" fill="#888CF0" width="8.239" height="3.566"/>
				<rect x="182.517" y="334.272" clip-path="url(#SVGID_6_)" fill="#888CF0" width="8.239" height="3.565"/>
				<rect x="182.517" y="341.109" clip-path="url(#SVGID_6_)" fill="#888CF0" width="8.239" height="3.565"/>
				<rect x="210.031" y="252.225" clip-path="url(#SVGID_6_)" fill="#FFC979" width="14.419" height="3.566"/>
				<rect x="228.276" y="252.225" clip-path="url(#SVGID_6_)" fill="#888CF0" width="67.828" height="3.566"/>
				<rect x="204.954" y="259.063" clip-path="url(#SVGID_6_)" fill="#FFC979" width="17.509" height="3.565"/>
				<rect x="226.73" y="259.063" clip-path="url(#SVGID_6_)" fill="#888CF0" width="75.774" height="3.565"/>
				<rect x="222.537" y="265.899" clip-path="url(#SVGID_6_)" fill="#FFC979" width="24.718" height="3.565"/>
				<rect x="250.787" y="265.899" clip-path="url(#SVGID_6_)" fill="#888CF0" width="60.03" height="3.565"/>
				<rect x="235.412" y="272.736" clip-path="url(#SVGID_6_)" fill="#FFC979" width="23.688" height="3.565"/>
				<rect x="263.661" y="272.736" clip-path="url(#SVGID_6_)" fill="#888CF0" width="60.104" height="3.565"/>
				<rect x="211.98" y="279.574" clip-path="url(#SVGID_6_)" fill="#FFC979" width="16.994" height="3.565"/>
				<rect x="233.167" y="279.574" clip-path="url(#SVGID_6_)" fill="#888CF0" width="68.822" height="3.565"/>
				<rect x="204.734" y="286.411" clip-path="url(#SVGID_6_)" fill="#FFC979" width="14.419" height="3.565"/>
				<rect x="222.979" y="286.411" clip-path="url(#SVGID_6_)" fill="#888CF0" width="73.125" height="3.565"/>
				<rect x="238.17" y="293.248" clip-path="url(#SVGID_6_)" fill="#FFC979" width="21.114" height="3.566"/>
				<rect x="264.065" y="293.248" clip-path="url(#SVGID_6_)" fill="#888CF0" width="56.168" height="3.566"/>
				<rect x="213.121" y="300.085" clip-path="url(#SVGID_6_)" fill="#FFC979" width="24.718" height="3.566"/>
				<rect x="241.958" y="300.085" clip-path="url(#SVGID_6_)" fill="#888CF0" width="65.916" height="3.566"/>
				<rect x="224.597" y="306.923" clip-path="url(#SVGID_6_)" fill="#FFC979" width="45.317" height="3.566"/>
				<rect x="274.034" y="306.923" clip-path="url(#SVGID_6_)" fill="#888CF0" width="55.322" height="3.566"/>
				<rect x="221.985" y="313.761" clip-path="url(#SVGID_6_)" fill="#FFC979" width="33.473" height="3.565"/>
				<rect x="261.123" y="313.761" clip-path="url(#SVGID_6_)" fill="#888CF0" width="54.991" height="3.565"/>
				<rect x="213.12" y="320.597" clip-path="url(#SVGID_6_)" fill="#FFC979" width="32.958" height="3.566"/>
				<rect x="250.198" y="320.597" clip-path="url(#SVGID_6_)" fill="#888CF0" width="60.029" height="3.566"/>
				<rect x="211.797" y="327.435" clip-path="url(#SVGID_6_)" fill="#FFC979" width="22.658" height="3.566"/>
				<rect x="239.457" y="327.435" clip-path="url(#SVGID_6_)" fill="#888CF0" width="61.943" height="3.566"/>
				<rect x="205.248" y="334.272" clip-path="url(#SVGID_6_)" fill="#FFC979" width="21.629" height="3.565"/>
				<rect x="230.556" y="334.272" clip-path="url(#SVGID_6_)" fill="#888CF0" width="83.792" height="3.565"/>
				<rect x="241.371" y="341.109" clip-path="url(#SVGID_6_)" fill="#FFC979" width="24.718" height="3.565"/>
				<rect x="270.797" y="341.109" clip-path="url(#SVGID_6_)" fill="#888CF0" width="58.854" height="3.565"/>
				<rect x="177.86" y="244.055" clip-path="url(#SVGID_6_)" fill="#888CF0" width="159.1" height="4.3"/>
				
					<rect x="177.86" y="244.055" clip-path="url(#SVGID_6_)" fill="none" stroke="#888CF0" stroke-width="0.176" stroke-miterlimit="10" width="159.1" height="4.3"/>
			</g>
		</g>
		<rect x="144.86" y="230.705" fill="#FFFFFF" width="159.1" height="107.85"/>
		<g opacity="0.5">
			<g>
				<defs>
					<rect id="SVGID_7_" x="144.42" y="230.265" width="159.98" height="108.73"/>
				</defs>
				<clipPath id="SVGID_8_">
					<use xlink:href="#SVGID_7_"  overflow="visible"/>
				</clipPath>
				<rect x="144.86" y="230.705" clip-path="url(#SVGID_8_)" fill="#FFFFFF" width="159.1" height="107.85"/>
				
					<rect x="144.86" y="230.705" clip-path="url(#SVGID_8_)" fill="none" stroke="#888CF0" stroke-width="0.879" stroke-miterlimit="10" width="159.1" height="107.85"/>
				<rect x="149.516" y="239.225" clip-path="url(#SVGID_8_)" fill="#888CF0" width="8.24" height="3.566"/>
				<rect x="149.516" y="246.062" clip-path="url(#SVGID_8_)" fill="#888CF0" width="8.24" height="3.566"/>
				<rect x="149.516" y="252.899" clip-path="url(#SVGID_8_)" fill="#888CF0" width="8.24" height="3.565"/>
				<rect x="149.516" y="259.736" clip-path="url(#SVGID_8_)" fill="#888CF0" width="8.24" height="3.565"/>
				<rect x="149.516" y="266.574" clip-path="url(#SVGID_8_)" fill="#888CF0" width="8.24" height="3.565"/>
				<rect x="149.516" y="273.411" clip-path="url(#SVGID_8_)" fill="#888CF0" width="8.24" height="3.565"/>
				<rect x="149.516" y="280.248" clip-path="url(#SVGID_8_)" fill="#888CF0" width="8.24" height="3.566"/>
				<rect x="149.516" y="287.085" clip-path="url(#SVGID_8_)" fill="#888CF0" width="8.24" height="3.566"/>
				<rect x="149.516" y="293.923" clip-path="url(#SVGID_8_)" fill="#888CF0" width="8.24" height="3.566"/>
				<rect x="149.516" y="300.761" clip-path="url(#SVGID_8_)" fill="#888CF0" width="8.24" height="3.565"/>
				<rect x="149.516" y="307.597" clip-path="url(#SVGID_8_)" fill="#888CF0" width="8.24" height="3.566"/>
				<rect x="149.516" y="314.435" clip-path="url(#SVGID_8_)" fill="#888CF0" width="8.24" height="3.566"/>
				<rect x="149.516" y="321.272" clip-path="url(#SVGID_8_)" fill="#888CF0" width="8.24" height="3.565"/>
				<rect x="149.516" y="328.109" clip-path="url(#SVGID_8_)" fill="#888CF0" width="8.24" height="3.565"/>
				<rect x="177.031" y="239.225" clip-path="url(#SVGID_8_)" fill="#FFC979" width="14.419" height="3.566"/>
				<rect x="195.276" y="239.225" clip-path="url(#SVGID_8_)" fill="#888CF0" width="67.828" height="3.566"/>
				<rect x="171.955" y="246.062" clip-path="url(#SVGID_8_)" fill="#FFC979" width="17.509" height="3.566"/>
				<rect x="193.73" y="246.062" clip-path="url(#SVGID_8_)" fill="#888CF0" width="75.774" height="3.566"/>
				<rect x="189.537" y="252.899" clip-path="url(#SVGID_8_)" fill="#FFC979" width="24.718" height="3.565"/>
				<rect x="217.787" y="252.899" clip-path="url(#SVGID_8_)" fill="#888CF0" width="60.03" height="3.565"/>
				<rect x="202.412" y="259.736" clip-path="url(#SVGID_8_)" fill="#FFC979" width="23.688" height="3.565"/>
				<rect x="230.661" y="259.736" clip-path="url(#SVGID_8_)" fill="#888CF0" width="60.104" height="3.565"/>
				<rect x="178.98" y="266.574" clip-path="url(#SVGID_8_)" fill="#FFC979" width="16.994" height="3.565"/>
				<rect x="200.167" y="266.574" clip-path="url(#SVGID_8_)" fill="#888CF0" width="68.822" height="3.565"/>
				<rect x="171.734" y="273.411" clip-path="url(#SVGID_8_)" fill="#FFC979" width="14.419" height="3.565"/>
				<rect x="189.979" y="273.411" clip-path="url(#SVGID_8_)" fill="#888CF0" width="73.125" height="3.565"/>
				<rect x="205.17" y="280.248" clip-path="url(#SVGID_8_)" fill="#FFC979" width="21.114" height="3.566"/>
				<rect x="231.065" y="280.248" clip-path="url(#SVGID_8_)" fill="#888CF0" width="56.168" height="3.566"/>
				<rect x="180.121" y="287.085" clip-path="url(#SVGID_8_)" fill="#FFC979" width="24.718" height="3.566"/>
				<rect x="208.958" y="287.085" clip-path="url(#SVGID_8_)" fill="#888CF0" width="65.916" height="3.566"/>
				<rect x="191.597" y="293.923" clip-path="url(#SVGID_8_)" fill="#FFC979" width="45.317" height="3.566"/>
				<rect x="241.034" y="293.923" clip-path="url(#SVGID_8_)" fill="#888CF0" width="55.322" height="3.566"/>
				<rect x="188.985" y="300.761" clip-path="url(#SVGID_8_)" fill="#FFC979" width="33.473" height="3.565"/>
				<rect x="228.123" y="300.761" clip-path="url(#SVGID_8_)" fill="#888CF0" width="54.991" height="3.565"/>
				<rect x="180.12" y="307.597" clip-path="url(#SVGID_8_)" fill="#FFC979" width="32.958" height="3.566"/>
				<rect x="217.198" y="307.597" clip-path="url(#SVGID_8_)" fill="#888CF0" width="60.029" height="3.566"/>
				<rect x="178.797" y="314.435" clip-path="url(#SVGID_8_)" fill="#FFC979" width="22.658" height="3.566"/>
				<rect x="206.457" y="314.435" clip-path="url(#SVGID_8_)" fill="#888CF0" width="61.943" height="3.566"/>
				<rect x="172.248" y="321.272" clip-path="url(#SVGID_8_)" fill="#FFC979" width="21.629" height="3.565"/>
				<rect x="197.556" y="321.272" clip-path="url(#SVGID_8_)" fill="#888CF0" width="83.792" height="3.565"/>
				<rect x="208.37" y="328.109" clip-path="url(#SVGID_8_)" fill="#FFC979" width="24.718" height="3.565"/>
				<rect x="237.797" y="328.109" clip-path="url(#SVGID_8_)" fill="#888CF0" width="58.854" height="3.565"/>
				<rect x="144.86" y="231.055" clip-path="url(#SVGID_8_)" fill="#888CF0" width="159.1" height="4.3"/>
				
					<rect x="144.86" y="231.055" clip-path="url(#SVGID_8_)" fill="none" stroke="#888CF0" stroke-width="0.176" stroke-miterlimit="10" width="159.1" height="4.3"/>
			</g>
		</g>
		<g opacity="0.2">
			<g>
				<defs>
					<rect id="SVGID_9_" x="68.376" y="403.84" width="40.625" height="11.315"/>
				</defs>
				<clipPath id="SVGID_10_">
					<use xlink:href="#SVGID_9_"  overflow="visible"/>
				</clipPath>
				<path clip-path="url(#SVGID_10_)" fill="#001627" d="M68.376,409.498c0,3.125,9.094,5.657,20.312,5.657
					c11.219,0,20.313-2.532,20.313-5.657c0-3.124-9.094-5.657-20.313-5.657C77.47,403.841,68.376,406.374,68.376,409.498"/>
			</g>
		</g>
		<polygon fill="#F1B762" points="73.901,369.989 75.602,408.198 108.186,407.556 110.79,370.124 		"/>
		<path fill="#C68D42" d="M74.77,370.124c0,2.444,8.096,4.428,18.082,4.428c9.987,0,17.215-1.983,17.215-4.428
			c0-2.445-7.228-4.427-17.215-4.427C82.865,365.697,74.77,367.679,74.77,370.124"/>
		<path fill="none" stroke="#F1B762" stroke-width="1.791" stroke-miterlimit="10" d="M74.77,370.124
			c0,2.444,8.096,4.428,18.082,4.428c9.987,0,17.215-1.983,17.215-4.428c0-2.445-7.228-4.427-17.215-4.427
			C82.865,365.697,74.77,367.679,74.77,370.124z"/>
		<path fill="#F1B762" d="M75.601,407.93c0,2.445,8.396,5.181,16.904,5.181c8.509,0,15.68-3.108,15.68-5.555
			c0-2.444-6.897-4.427-15.406-4.427C84.271,403.129,75.601,405.485,75.601,407.93"/>
		<circle fill="none" stroke="#F1B762" stroke-width="4.277" stroke-miterlimit="10" cx="74.374" cy="387.754" r="9.816"/>
		
			<line fill="none" stroke="#959FAF" stroke-width="1.069" stroke-linecap="round" stroke-miterlimit="10" x1="101.639" y1="372.758" x2="101.639" y2="387.481"/>
		<polygon fill="#FFFFFF" points="101.639,383.801 96.731,388.845 97.413,396.479 106.683,396.069 107.228,387.208 		"/>
		<g opacity="0.2">
			<g>
				<defs>
					<rect id="SVGID_11_" x="417.285" y="394.498" width="55.599" height="15.326"/>
				</defs>
				<clipPath id="SVGID_12_">
					<use xlink:href="#SVGID_11_"  overflow="visible"/>
				</clipPath>
				<path clip-path="url(#SVGID_12_)" fill="#001627" d="M472.885,402.161c0,4.232-12.446,7.663-27.8,7.663s-27.8-3.431-27.8-7.663
					s12.446-7.663,27.8-7.663S472.885,397.929,472.885,402.161"/>
			</g>
		</g>
		<path fill="#F1B762" d="M417.087,322.729c-1.994,2.531-5.661,2.966-8.192,0.973c-2.53-1.994-2.966-5.661-0.973-8.191
			l12.251-15.553c1.993-2.53,5.661-2.966,8.192-0.973c2.531,1.994,2.966,5.661,0.973,8.192L417.087,322.729z"/>
		<g opacity="0.1">
			<g>
				<defs>
					<rect id="SVGID_13_" x="406.671" y="297.734" width="23.918" height="27.219"/>
				</defs>
				<clipPath id="SVGID_14_">
					<use xlink:href="#SVGID_13_"  overflow="visible"/>
				</clipPath>
				<path clip-path="url(#SVGID_14_)" fill="#001627" d="M417.087,322.729c-1.994,2.531-5.661,2.966-8.192,0.973
					c-2.53-1.994-2.966-5.661-0.973-8.191l12.251-15.553c1.993-2.53,5.661-2.966,8.192-0.973c2.531,1.994,2.966,5.661,0.973,8.192
					L417.087,322.729z"/>
			</g>
		</g>
		<path fill="#F1B762" d="M417.677,399.956c-0.178,5.309,10.532,7.836,24.097,8.29c13.563,0.454,24.845-1.338,25.022-6.645
			c0.178-5.309-11.584-14.713-25.147-15.167C428.084,385.98,417.855,394.648,417.677,399.956"/>
		<g opacity="0.1">
			<g>
				<defs>
					<rect id="SVGID_15_" x="446.718" y="387.017" width="20.08" height="21.23"/>
				</defs>
				<clipPath id="SVGID_16_">
					<use xlink:href="#SVGID_15_"  overflow="visible"/>
				</clipPath>
				<path clip-path="url(#SVGID_16_)" fill="#001627" d="M446.718,387.018c7.326,3.881,12.357,10.076,12.219,14.207
					c-0.12,3.591-3.879,5.84-9.612,7.022c9.961-0.373,17.328-2.365,17.473-6.646C466.952,396.969,458.012,389.217,446.718,387.018"
					/>
			</g>
		</g>
		
			<line fill="none" stroke="#F1B762" stroke-width="2.138" stroke-linecap="round" stroke-miterlimit="10" x1="472.885" y1="293.993" x2="444.016" y2="389.152"/>
		
			<line fill="none" stroke="#F1B762" stroke-width="2.138" stroke-linecap="round" stroke-miterlimit="10" x1="478.765" y1="293.993" x2="449.896" y2="389.152"/>
		
			<line fill="none" stroke="#F1B762" stroke-width="2.138" stroke-linecap="round" stroke-miterlimit="10" x1="412.724" y1="324.648" x2="485.685" y2="300.361"/>
		
			<line fill="none" stroke="#F1B762" stroke-width="2.138" stroke-linecap="round" stroke-miterlimit="10" x1="409.593" y1="319.671" x2="482.554" y2="295.383"/>
		<path fill="#F1B762" d="M420.384,344.708c0.646-0.712,1.265-1.466,1.842-2.269c7.438-10.343,5.883-24.182-3.474-30.91
			s-22.972-3.798-30.409,6.545c-0.577,0.804-1.094,1.629-1.563,2.47L420.384,344.708z"/>
		<g opacity="0.1">
			<g>
				<defs>
					<rect id="SVGID_17_" x="386.78" y="311.148" width="40.147" height="33.56"/>
				</defs>
				<clipPath id="SVGID_18_">
					<use xlink:href="#SVGID_17_"  overflow="visible"/>
				</clipPath>
				<path clip-path="url(#SVGID_18_)" fill="#001627" d="M418.752,311.529c-0.194-0.14-0.4-0.25-0.599-0.381
					c4.85,7.311,4.637,17.727-1.273,25.945c-0.577,0.803-1.195,1.556-1.842,2.268l-27.634-19.87
					c-0.216,0.348-0.427,0.698-0.625,1.052l33.604,24.164c0.647-0.712,1.265-1.464,1.842-2.267
					C429.664,332.097,428.108,318.257,418.752,311.529"/>
			</g>
		</g>
		<path fill="#FFFFFF" d="M401.102,336.01c9.473,6.721,18.358,10.471,19.844,8.375c1.487-2.096-4.986-9.242-14.46-15.964
			c-9.473-6.721-18.357-10.471-19.845-8.375C385.154,322.142,391.629,329.288,401.102,336.01"/>
		<polygon fill="#EDAA98" points="205.582,249.442 197.028,267.263 204.513,272.965 		"/>
		<path fill="#FFC1AC" d="M207.364,237.325c0,0-19.246,66.647,18.176,57.737l2.139,21.741l28.869,2.851l1.069-31.007
			c0,0,9.979-64.152,4.988-70.211C257.617,212.376,216.274,201.328,207.364,237.325"/>
		<path fill="#EDAA98" d="M212.213,237.325c0,0-20.247,66.647,13.327,57.737l0.872,23.388l29.928,1.204l0.959-31.007
			c0,0,8.953-64.152,4.478-70.211C257.299,212.376,220.207,201.328,212.213,237.325"/>
		<path fill="#001627" d="M272.586,219.504c-4.39-5.775-9.992-7.168-13.733-7.37c-0.622-10.797-16.556-11.402-29.035-9.025
			c-16.637,3.169-31.008-10.692-31.008-10.692c-4.276,14.969,4.277,22.097,4.277,22.097c-3.92-0.712-9.266-8.197-9.266-8.197
			c-2.139,16.038,13.9,26.374,13.9,26.374c-1.07,8.197,4.989,13.9,4.989,13.9l0.713,18.533h3.208c0,0-0.713-5.702,1.782-12.474
			c2.494-6.772,8.91-0.713,7.841,10.335c-1.07,11.049-7.129,6.415-7.129,6.415c1.07,8.554,12.118,21.028,12.118,21.028h26.018
			C283.277,248.017,279.357,228.415,272.586,219.504"/>
		<path fill="#03243A" d="M210.625,244.019c2.596-10.203,7.994-19.894,15.871-26.396c8.346-6.888,19.221-12.07,30.107-11.003
			c-4.918-5.399-16.926-5.388-26.785-3.51c-16.637,3.169-31.008-10.692-31.008-10.692c-4.276,14.969,4.277,22.097,4.277,22.097
			c-3.92-0.713-9.266-8.197-9.266-8.197c-2.139,16.038,13.9,26.374,13.9,26.374C207.081,237.591,208.987,241.587,210.625,244.019"/>
		<path fill="#EDAA98" d="M224.413,255.379c-0.353-0.354-0.712-0.69-1.086-0.98c-0.186-0.145-0.37-0.285-0.563-0.392
			c-0.188-0.106-0.385-0.199-0.551-0.231c-0.171-0.054-0.308-0.027-0.389,0.021c-0.048-0.003-0.081,0.074-0.12,0.098
			c-0.039,0.011-0.081,0.101-0.123,0.15c-0.045,0.048-0.089,0.111-0.124,0.207l-0.118,0.246l-0.18,0.595l0.04-0.175
			c-0.081,1.422-0.163,2.845-0.335,4.255c-0.154,1.413-0.371,2.82-0.619,4.224l-0.615-0.907c0.305,0.097,0.544,0.212,0.805,0.34
			c0.255,0.13,0.505,0.276,0.75,0.438c0.243,0.167,0.486,0.354,0.703,0.585c0.106,0.131,0.211,0.257,0.306,0.394
			c0.083,0.163,0.177,0.309,0.229,0.487c0.033,0.188,0.108,0.367,0.074,0.557c-0.026,0.186-0.033,0.382-0.126,0.524
			c-0.082,0.146-0.142,0.315-0.251,0.421l-0.308,0.325c-0.104,0.101-0.232,0.163-0.345,0.244c-0.118,0.071-0.226,0.155-0.348,0.215
			c-0.245,0.112-0.496,0.211-0.735,0.311c0.359-0.392,0.705-0.772,0.945-1.18l0.142-0.3c0.055-0.097,0.034-0.195,0.059-0.281
			c0.036-0.09-0.027-0.163-0.024-0.231c0.008-0.07-0.073-0.128-0.087-0.188c-0.037-0.061-0.114-0.117-0.157-0.177l-0.223-0.166
			c-0.177-0.101-0.354-0.207-0.558-0.295c-0.206-0.088-0.419-0.164-0.639-0.231c-0.218-0.06-0.46-0.125-0.65-0.168l-0.656-0.148
			l0.041-0.759c0.076-1.422,0.184-2.841,0.354-4.253c0.152-1.413,0.394-2.816,0.638-4.22l0.025-0.146l0.014-0.027
			c0.129-0.256,0.252-0.506,0.389-0.754c0.201-0.254,0.308-0.504,0.604-0.733c0.139-0.11,0.239-0.236,0.437-0.307
			c0.183-0.072,0.348-0.169,0.553-0.166c0.199-0.017,0.394-0.026,0.562,0.034c0.178,0.041,0.34,0.099,0.469,0.184
			c0.29,0.145,0.491,0.35,0.676,0.551c0.187,0.202,0.339,0.416,0.481,0.632C224.051,254.438,224.261,254.9,224.413,255.379"/>
		<path fill="#414074" d="M368.94,393.27c0,0-2.143,5.65,0.779,7.404c2.923,1.754,20.459,1.559,21.044-3.702
			c0.584-5.261-3.702-10.911-8.963-12.274C376.54,383.333,368.94,393.27,368.94,393.27"/>
		<path fill="#2D2D51" d="M387.832,388.572c0.236,1.038,0.318,2.095,0.204,3.139c-0.526,4.731-14.759,5.364-19.744,4.168
			c-0.25,1.727-0.166,3.839,1.428,4.795c2.923,1.754,20.459,1.56,21.043-3.701C391.091,394.02,389.884,390.944,387.832,388.572"/>
		<path fill="#FFC1AC" d="M357.835,385.087c0,0,13.834-8.378,15.781-7.794c1.949,0.585,3.897,1.363,3.897,1.363
			s2.728-1.559,4.481-0.778c1.753,0.778,9.742,3.896,8.378,5.845c-1.363,1.948-5.845,0.39-5.845,0.39s5.65,1.364,6.624,2.533
			c0,0,0.391,2.533-2.143,2.533s-8.378-2.145-8.378-2.145s-7.6,9.938-13.444,9.938C361.342,396.972,357.835,385.087,357.835,385.087
			"/>
		<path fill="#FFC1AC" d="M159.743,383.787c0,0-12.037-8.378-13.733-7.794c-1.695,0.585-3.391,1.364-3.391,1.364
			s-2.373-1.559-3.899-0.779s-8.477,3.897-7.29,5.846s5.086,0.39,5.086,0.39s-4.917,1.364-5.764,2.533c0,0-0.339,2.533,1.865,2.533
			s7.29-2.144,7.29-2.144s6.612,9.937,11.698,9.937S159.743,383.787,159.743,383.787"/>
		<path fill="#F1B762" d="M359.196,380.246c-5.346,0-31.189,9.441-31.189,9.441s-19.246-55.6-35.284-71.638
			s-67.895-11.227-92.487-6.949c-15.598,2.712-25.944,23.424-30.815,73.109c-10.25-5.339-15.116-7.425-19.485-6.333
			c-11.69,2.923-8.768,17.049-8.768,17.049s19.307,14.424,26.791,16.563c4.576,1.307,16.4,16.724,24.843-38.482
			c-0.492,13.154-6.495,39.618-1.12,68.538l104.783,9.622c0,0-3.633-38.364-4.942-67.768c8.398,8.997,17.838,33.191,27.278,33.772
			c7.769,0.479,38.792-9.126,46.277-13.401C372.562,399.492,364.543,380.246,359.196,380.246"/>
		<g opacity="0.1">
			<g>
				<defs>
					<rect id="SVGID_19_" x="140.846" y="311.497" width="227.274" height="139.67"/>
				</defs>
				<clipPath id="SVGID_20_">
					<use xlink:href="#SVGID_19_"  overflow="visible"/>
				</clipPath>
				<path clip-path="url(#SVGID_20_)" fill="#001627" d="M362.998,384.808c-5.347,0-33.049,10.804-33.049,10.804
					s-0.684-2.237-1.9-5.939c-0.016,0.006-0.043,0.016-0.043,0.016s-16.056-46.379-31.058-66.636
					c-0.142-0.147-0.283-0.299-0.425-0.44c-16.039-16.038-67.895-11.227-92.487-6.95c-15.598,2.712-25.944,23.425-30.815,73.11
					c-6.548-3.411-17.023-7.882-24.878-10.385c-9.812,3.759-7.176,16.54-7.176,16.54s19.307,14.423,26.791,16.561
					c4.576,1.309,16.4,16.725,24.843-38.48c-0.492,13.152-6.495,39.617-1.12,68.537l104.783,9.622c0,0-3.633-38.363-4.942-67.769
					c8.398,8.998,17.838,33.193,27.278,33.773c7.769,0.478,38.792-9.125,46.277-13.402c4.979-2.846,3.094-12.313-0.301-18.334
					C364.169,385.037,363.567,384.808,362.998,384.808"/>
			</g>
		</g>
		<path fill="#001627" d="M317.766,500h48.601c6.299-12.86,11.924-26.536,11.358-29.588c-5.346-28.868-82.305-35.705-82.305-35.705
			c-10.657,3.297-18.02,5.832-29.259,7.139c-23.958,2.786-48.06,1.902-72.063,0.124c1.246,11.5,3.07,21.753,5.726,28.442h86.542
			C298.139,477.255,308.511,489.059,317.766,500"/>
		<g opacity="0.4">
			<g>
				<defs>
					<rect id="SVGID_21_" x="173.188" y="462.842" width="116.861" height="37.733"/>
				</defs>
				<clipPath id="SVGID_22_">
					<use xlink:href="#SVGID_21_"  overflow="visible"/>
				</clipPath>
			</g>
		</g>
		<path fill="#414074" d="M290.733,415.167c0,5.43-4.401,9.833-9.833,9.833h-90.463c-5.43,0-9.833-4.403-9.833-9.833v-71.78
			c0-5.431,4.403-9.833,9.833-9.833H280.9c5.432,0,9.833,4.402,9.833,9.833V415.167z"/>
		<g opacity="0.4">
			<g>
				<defs>
					<rect id="SVGID_23_" x="180.605" y="343.307" width="99.312" height="81.693"/>
				</defs>
				<clipPath id="SVGID_24_">
					<use xlink:href="#SVGID_23_"  overflow="visible"/>
				</clipPath>
				<path clip-path="url(#SVGID_24_)" fill="#001627" d="M279.917,416.133c0,4.896-3.97,8.866-8.866,8.866h-81.579
					c-4.897,0-8.867-3.97-8.867-8.866v-63.958c0-4.897,3.97-8.867,8.867-8.867h81.579c4.896,0,8.866,3.97,8.866,8.867V416.133z"/>
			</g>
		</g>
		<path fill="#6E7989" d="M241.707,500V393.043c0-5.159-4.182-9.342-9.341-9.342s-9.341,4.183-9.341,9.342V500H241.707z"/>
		<g opacity="0.2">
			<g>
				<defs>
					<rect id="SVGID_25_" x="236.427" y="384.641" width="5.28" height="115.359"/>
				</defs>
				<clipPath id="SVGID_26_">
					<use xlink:href="#SVGID_25_"  overflow="visible"/>
				</clipPath>
				<path clip-path="url(#SVGID_26_)" fill="#001627" d="M237.367,500h4.34V393.043c0-3.702-2.158-6.89-5.279-8.402
					c0.595,1.229,0.939,2.604,0.939,4.062V500z"/>
			</g>
		</g>
		<path fill="#A9ACD8" d="M248.959,121.857h-69.176c-4.977,0-9.012,4.035-9.012,9.012v42.453c0,4.784,3.73,8.686,8.439,8.983
			l-4.957,16.907h4.957l18.246-16.878h51.503c4.977,0,9.012-4.034,9.012-9.012v-42.453
			C257.972,125.892,253.937,121.857,248.959,121.857"/>
		<path fill="#FFFFFF" d="M244.003,121.857h-69.176c-4.977,0-9.012,4.035-9.012,9.012v42.453c0,4.784,3.73,8.686,8.439,8.983v16.907
			l18.245-16.878h51.504c4.977,0,9.012-4.034,9.012-9.012v-42.453C253.015,125.892,248.98,121.857,244.003,121.857"/>
		<path fill="#7178C6" d="M387.3,130.937c0,15.314,12.413,27.728,27.728,27.728s27.728-12.414,27.728-27.728
			s-12.413-27.728-27.728-27.728S387.3,115.623,387.3,130.937"/>
		<path fill="#888CF0" d="M381.377,130.937c0,15.314,12.414,27.728,27.729,27.728c15.313,0,27.728-12.414,27.728-27.728
			s-12.414-27.728-27.728-27.728C393.791,103.209,381.377,115.623,381.377,130.937"/>
		<path fill="#7178C6" d="M128.51,160.771c0-17.799-16.723-32.227-37.351-32.227c-20.629,0-37.351,14.428-37.351,32.227
			s16.722,32.227,37.351,32.227c5.065,0,9.893-0.874,14.297-2.45l4.556,9.275h6.194v-15.147
			C123.762,178.778,128.51,170.254,128.51,160.771"/>
		<path fill="#888CF0" d="M122.315,160.771c0-17.799-16.723-32.227-37.351-32.227c-20.629,0-37.351,14.428-37.351,32.227
			s16.722,32.227,37.351,32.227c5.065,0,9.893-0.874,14.297-2.45l10.75,9.275v-15.147
			C117.567,178.778,122.315,170.254,122.315,160.771"/>
		<path fill="#2E2E59" d="M442.303,181.198h-48.564c-3.804,0-6.887,3.083-6.887,6.887v29.08c0,3.803,3.083,6.886,6.887,6.886
			l-2.96,13.685h5.196l14.793-13.685h31.535c3.803,0,6.887-3.083,6.887-6.886v-29.08
			C449.189,184.281,446.105,181.198,442.303,181.198"/>
		<path fill="#414074" d="M437.106,181.198h-48.563c-3.804,0-6.887,3.083-6.887,6.887v29.08c0,3.803,3.083,6.886,6.887,6.886h2.235
			v13.685l14.794-13.685h31.534c3.804,0,6.888-3.083,6.888-6.886v-29.08C443.994,184.281,440.91,181.198,437.106,181.198"/>
		<path fill="#D8A159" d="M69.286,233.08c0,10.293,8.344,18.636,18.636,18.636c10.293,0,18.637-8.343,18.637-18.636
			s-8.344-18.637-18.637-18.637C77.629,214.442,69.286,222.787,69.286,233.08"/>
		<path fill="#FFC979" d="M65.798,233.08c0,10.293,8.344,18.636,18.637,18.636c10.292,0,18.636-8.343,18.636-18.636
			s-8.344-18.637-18.636-18.637C74.143,214.442,65.798,222.787,65.798,233.08"/>
		<path fill="#414074" d="M78.927,232.663c0-2.273,0.332-4.401,0.997-6.382c0.665-1.982,1.623-3.719,2.876-5.212h2.638
			c-1.193,1.613-2.106,3.421-2.741,5.424c-0.635,2.003-0.952,4.051-0.952,6.144c0,2.094,0.317,4.122,0.952,6.087
			c0.635,1.964,1.54,3.74,2.715,5.327H82.8c-1.261-1.458-2.222-3.161-2.882-5.108C79.257,236.996,78.927,234.902,78.927,232.663"/>
		<path fill="#414074" d="M87.935,227.284c0-1.295,0.635-1.943,1.904-1.943c0.644,0,1.124,0.172,1.442,0.514
			c0.316,0.344,0.476,0.82,0.476,1.429s-0.166,1.092-0.496,1.447c-0.33,0.357-0.804,0.534-1.422,0.534
			c-0.617,0-1.089-0.175-1.415-0.527C88.097,228.386,87.935,227.902,87.935,227.284 M87.935,238.273
			c0-0.626,0.162-1.107,0.489-1.441c0.326-0.335,0.798-0.502,1.415-0.502c0.626,0,1.102,0.174,1.429,0.521
			c0.325,0.348,0.489,0.822,0.489,1.422c0,0.609-0.166,1.092-0.496,1.448c-0.33,0.355-0.804,0.534-1.422,0.534
			c-0.617,0-1.089-0.176-1.415-0.528C88.097,239.376,87.935,238.891,87.935,238.273"/>
		<path fill="#D8A159" d="M354.309,154.599c0-16.415-13.307-29.723-29.723-29.723c-16.415,0-29.722,13.308-29.722,29.723
			c0,15.13,11.308,27.611,25.933,29.474l3.991,12.691h4.637l4-13.779C345.523,179.222,354.309,167.936,354.309,154.599"/>
		<path fill="#FFC979" d="M349.673,154.599c0-16.415-13.308-29.723-29.724-29.723c-16.415,0-29.722,13.308-29.722,29.723
			c0,15.13,11.308,27.611,25.932,29.474l8.629,12.691l4-13.779C340.888,179.222,349.673,167.936,349.673,154.599"/>
		<path fill="#D8A159" d="M230.539,47.758h-33.758c-2.644,0-4.787,2.143-4.787,4.787v33.758c0,2.644,2.143,4.787,4.787,4.787h16.857
			l9.215,12.24h4.871V91.09h2.815c2.644,0,4.787-2.143,4.787-4.787V52.545C235.326,49.901,233.183,47.758,230.539,47.758"/>
		<path fill="#FFC979" d="M225.668,47.758H191.91c-2.644,0-4.787,2.143-4.787,4.787v33.758c0,2.644,2.143,4.787,4.787,4.787h16.857
			l14.086,12.24V91.09h2.815c2.644,0,4.787-2.143,4.787-4.787V52.545C230.455,49.901,228.312,47.758,225.668,47.758"/>
	</g>
</g>
<g>
	<path fill="#FFFFFF" d="M398.085,193.156h3.648v10.225c0,4.608-2.208,6.217-5.76,6.217c-0.841,0-1.944-0.144-2.665-0.384
		l0.408-2.952c0.504,0.168,1.152,0.288,1.872,0.288c1.536,0,2.496-0.696,2.496-3.216V193.156z"/>
	<path fill="#FFFFFF" d="M411.214,209.333l-0.216-1.176h-0.072c-0.768,0.936-1.968,1.44-3.36,1.44c-2.376,0-3.792-1.729-3.792-3.601
		c0-3.048,2.736-4.512,6.889-4.488v-0.168c0-0.624-0.336-1.512-2.137-1.512c-1.2,0-2.472,0.408-3.24,0.888l-0.672-2.352
		c0.816-0.456,2.424-1.032,4.561-1.032c3.912,0,5.16,2.304,5.16,5.064v4.08c0,1.128,0.048,2.208,0.168,2.856H411.214z
		 M410.782,203.789c-1.921-0.024-3.409,0.432-3.409,1.848c0,0.936,0.625,1.392,1.44,1.392c0.912,0,1.656-0.6,1.896-1.344
		c0.048-0.192,0.072-0.408,0.072-0.624V203.789z"/>
	<path fill="#FFFFFF" d="M419.638,197.597l1.584,5.448c0.288,0.984,0.504,1.92,0.672,2.856h0.072
		c0.191-0.96,0.384-1.848,0.647-2.856l1.513-5.448h3.84l-4.368,11.737h-3.648l-4.272-11.737H419.638z"/>
	<path fill="#FFFFFF" d="M436.15,209.333l-0.216-1.176h-0.072c-0.768,0.936-1.968,1.44-3.36,1.44c-2.376,0-3.792-1.729-3.792-3.601
		c0-3.048,2.736-4.512,6.889-4.488v-0.168c0-0.624-0.336-1.512-2.137-1.512c-1.2,0-2.472,0.408-3.24,0.888l-0.672-2.352
		c0.816-0.456,2.424-1.032,4.561-1.032c3.912,0,5.16,2.304,5.16,5.064v4.08c0,1.128,0.048,2.208,0.168,2.856H436.15z
		 M435.719,203.789c-1.921-0.024-3.409,0.432-3.409,1.848c0,0.936,0.625,1.392,1.44,1.392c0.912,0,1.656-0.6,1.896-1.344
		c0.048-0.192,0.072-0.408,0.072-0.624V203.789z"/>
</g>
<g>
	<path fill="#FFFFFF" d="M59.472,163.691l-1.68,5.224h-5.53l7.21-20.353h7.001l7.315,20.353h-5.74l-1.82-5.224H59.472z
		 M65.458,160.249l-1.47-4.318c-0.42-1.208-0.84-2.718-1.19-3.925h-0.07c-0.35,1.208-0.7,2.748-1.085,3.925l-1.4,4.318H65.458z"/>
	<path fill="#FFFFFF" d="M76.621,164.899c0.98,0.513,3.01,1.117,4.585,1.117c1.61,0,2.275-0.483,2.275-1.238
		c0-0.755-0.525-1.117-2.52-1.691c-3.536-1.027-4.901-2.688-4.866-4.439c0-2.748,2.73-4.832,6.966-4.832
		c1.995,0,3.78,0.393,4.831,0.846l-0.945,3.17c-0.77-0.362-2.24-0.845-3.71-0.845c-1.295,0-2.03,0.453-2.03,1.208
		c0,0.695,0.665,1.057,2.766,1.691c3.255,0.966,4.62,2.385,4.655,4.56c0,2.748-2.52,4.771-7.421,4.771
		c-2.24,0-4.235-0.422-5.53-1.026L76.621,164.899z"/>
	<path fill="#FFFFFF" d="M91.846,158.859c0-1.842-0.07-3.412-0.14-4.711h4.48l0.245,1.993h0.105c0.735-0.936,2.24-2.325,5.181-2.325
		c2.205,0,3.955,0.966,4.69,2.506h0.07c0.63-0.755,1.4-1.359,2.206-1.782c0.945-0.483,1.995-0.725,3.255-0.725
		c3.29,0,5.775,1.993,5.775,6.402v8.697h-5.181v-8.032c0-2.144-0.805-3.382-2.52-3.382c-1.225,0-2.101,0.725-2.45,1.601
		c-0.14,0.332-0.21,0.815-0.21,1.178v8.636h-5.181v-8.274c0-1.873-0.77-3.141-2.45-3.141c-1.365,0-2.17,0.906-2.485,1.661
		c-0.175,0.363-0.21,0.785-0.21,1.148v8.606h-5.181V158.859z"/>
</g>
<g>
	<path fill="#414074" d="M218.192,81.649c-1.008,0.504-3.275,1.044-6.228,1.044c-8.387,0-12.706-5.219-12.706-12.13
		c0-8.279,5.903-12.886,13.246-12.886c2.844,0,5.004,0.576,5.976,1.08l-1.116,4.355c-1.115-0.468-2.663-0.9-4.607-0.9
		c-4.355,0-7.738,2.628-7.738,8.027c0,4.859,2.879,7.919,7.774,7.919c1.656,0,3.492-0.36,4.571-0.792L218.192,81.649z"/>
</g>
<g>
	<path fill="#001627" d="M322.585,154.619c0,7.955-4.823,12.778-11.915,12.778c-7.198,0-11.41-5.436-11.41-12.347
		c0-7.271,4.644-12.706,11.807-12.706C318.518,142.344,322.585,147.923,322.585,154.619z M305.055,154.942
		c0,4.751,2.232,8.099,5.903,8.099c3.708,0,5.832-3.527,5.832-8.243c0-4.355-2.088-8.099-5.867-8.099
		C307.215,146.7,305.055,150.227,305.055,154.942z"/>
	<path fill="#001627" d="M326.367,161.35c1.476,0.756,3.743,1.512,6.083,1.512c2.52,0,3.852-1.043,3.852-2.627
		c0-1.512-1.151-2.376-4.067-3.419c-4.031-1.404-6.659-3.636-6.659-7.163c0-4.14,3.456-7.307,9.179-7.307
		c2.736,0,4.752,0.576,6.191,1.224l-1.224,4.428c-0.972-0.468-2.7-1.152-5.075-1.152c-2.376,0-3.528,1.08-3.528,2.34
		c0,1.548,1.368,2.232,4.5,3.42c4.283,1.583,6.299,3.815,6.299,7.235c0,4.067-3.132,7.523-9.79,7.523
		c-2.772,0-5.508-0.72-6.876-1.476L326.367,161.35z"/>
</g>
<g>
	<path fill="#2E2E59" d="M153.554,60.717h-75.75c-4.314,0-7.811,3.497-7.811,7.811v26.417c0,4.314,3.497,7.811,7.811,7.811h53.055
		l12.671,15.288h5.096v-15.288h4.929c4.314,0,7.811-3.497,7.811-7.811V68.528C161.365,64.213,157.868,60.717,153.554,60.717"/>
	<path fill="#414074" d="M148.458,60.717h-75.75c-4.314,0-7.811,3.497-7.811,7.811v26.417c0,4.314,3.497,7.811,7.811,7.811h53.054
		l17.767,15.288v-15.288h4.929c4.314,0,7.811-3.497,7.811-7.811V68.528C156.269,64.213,152.772,60.717,148.458,60.717"/>
	<g>
		<path fill="#FFFFFF" d="M92.06,79.743c0,5.305-3.217,8.521-7.945,8.521c-4.8,0-7.608-3.625-7.608-8.233
			c0-4.848,3.097-8.473,7.873-8.473C89.348,71.559,92.06,75.279,92.06,79.743z M80.37,79.959c0,3.168,1.488,5.4,3.937,5.4
			c2.473,0,3.889-2.353,3.889-5.497c0-2.904-1.393-5.4-3.912-5.4C81.811,74.463,80.37,76.815,80.37,79.959z"/>
		<path fill="#FFFFFF" d="M94.313,88c0.048-0.768,0.096-2.184,0.096-3.504V70.958h3.648v6.697h0.048
			c0.696-1.008,1.921-1.656,3.553-1.656c2.808,0,4.872,2.328,4.849,5.928c0,4.225-2.688,6.337-5.377,6.337
			c-1.368,0-2.688-0.504-3.528-1.896h-0.048L97.41,88H94.313z M98.058,83.007c0,0.24,0.024,0.456,0.072,0.648
			c0.24,0.984,1.08,1.728,2.136,1.728c1.561,0,2.521-1.2,2.521-3.313c0-1.824-0.816-3.264-2.521-3.264
			c-0.983,0-1.896,0.744-2.136,1.8c-0.048,0.216-0.072,0.432-0.072,0.672V83.007z"/>
		<path fill="#FFFFFF" d="M106.338,90.16c0.96-0.072,1.704-0.288,2.16-0.768c0.528-0.552,0.72-1.488,0.72-3.816v-9.313h3.673V86.44
			c0,2.568-0.576,4.128-1.656,5.136c-1.08,1.008-2.784,1.44-4.536,1.44L106.338,90.16z M112.986,72.999
			c0,1.008-0.744,1.824-1.968,1.824c-1.152,0-1.896-0.816-1.896-1.824c0-1.056,0.744-1.848,1.944-1.848
			C112.242,71.15,112.962,71.942,112.986,72.999z"/>
		<path fill="#FFFFFF" d="M118.554,83.295c0.12,1.512,1.608,2.232,3.313,2.232c1.248,0,2.256-0.168,3.24-0.48l0.479,2.472
			c-1.2,0.48-2.664,0.72-4.248,0.72c-3.984,0-6.265-2.304-6.265-5.977c0-2.977,1.849-6.265,5.929-6.265
			c3.792,0,5.232,2.952,5.232,5.856c0,0.624-0.072,1.176-0.12,1.44H118.554z M122.85,80.799c0-0.888-0.384-2.376-2.063-2.376
			c-1.536,0-2.16,1.392-2.257,2.376H122.85z"/>
		<path fill="#FFFFFF" d="M137.226,87.712c-0.647,0.288-1.872,0.528-3.264,0.528c-3.793,0-6.217-2.304-6.217-6
			c0-3.433,2.353-6.241,6.721-6.241c0.96,0,2.017,0.168,2.784,0.456l-0.576,2.712c-0.432-0.192-1.08-0.36-2.04-0.36
			c-1.92,0-3.168,1.368-3.145,3.289c0,2.16,1.44,3.288,3.217,3.288c0.864,0,1.536-0.144,2.088-0.36L137.226,87.712z"/>
		<path fill="#FFFFFF" d="M143.706,72.903v3.36h2.616v2.688h-2.616V83.2c0,1.416,0.336,2.064,1.439,2.064
			c0.456,0,0.816-0.048,1.08-0.096l0.024,2.76c-0.48,0.192-1.345,0.312-2.376,0.312c-1.177,0-2.16-0.408-2.736-1.008
			c-0.672-0.696-1.009-1.824-1.009-3.48v-4.8h-1.56v-2.688h1.56v-2.544L143.706,72.903z"/>
	</g>
</g>
<g>
	<path fill="#FFFFFF" d="M397.273,135.121l4.76-13.72h5.46l-7.42,19.6h-5.601l-7.42-19.6h5.46L397.273,135.121z"/>
	<path fill="#FFFFFF" d="M425.693,130.081l-3.921,7h-3.92l-3.92-7V141h-5.04v-19.6h5.32l5.6,10.36l5.601-10.36h5.319V141h-5.039
		V130.081z"/>
</g>
<g>
	<path fill="#A9ACD8" d="M388.479,48.934H267.124c-5.627,0-10.188,4.561-10.188,10.188v13.545c0,5.627,4.561,10.188,10.188,10.188
		h35.127l-5.603,20.67h5.603l22.347-20.67h63.882c5.627,0,10.188-4.561,10.188-10.188V59.122
		C398.667,53.495,394.106,48.934,388.479,48.934"/>
	<path fill="#FFFFFF" d="M382.876,48.934H261.521c-5.627,0-10.188,4.561-10.188,10.188v13.545c0,5.627,4.561,10.188,10.188,10.188
		h35.127v20.67l22.346-20.67h63.883c5.627,0,10.188-4.561,10.188-10.188V59.122C393.064,53.495,388.503,48.934,382.876,48.934"/>
</g>
<g>
	<g>
		<path fill="#888CF0" d="M267.25,57.372c1.128-0.192,2.712-0.336,4.944-0.336c2.257,0,3.864,0.432,4.944,1.296
			c1.032,0.816,1.729,2.16,1.729,3.745c0,1.584-0.528,2.928-1.488,3.84c-1.248,1.176-3.096,1.704-5.256,1.704
			c-0.48,0-0.912-0.024-1.249-0.072v5.785h-3.624V57.372z M270.874,64.717c0.313,0.072,0.696,0.096,1.225,0.096
			c1.944,0,3.145-0.984,3.145-2.641c0-1.488-1.032-2.376-2.856-2.376c-0.744,0-1.248,0.072-1.513,0.144V64.717z"/>
		<path fill="#888CF0" d="M283.307,68.629c0.12,1.512,1.608,2.232,3.313,2.232c1.248,0,2.256-0.168,3.24-0.48l0.479,2.472
			c-1.2,0.48-2.664,0.72-4.248,0.72c-3.984,0-6.265-2.304-6.265-5.977c0-2.977,1.849-6.265,5.929-6.265
			c3.792,0,5.232,2.952,5.232,5.856c0,0.624-0.072,1.176-0.12,1.44H283.307z M287.603,66.133c0-0.888-0.384-2.376-2.063-2.376
			c-1.536,0-2.16,1.392-2.257,2.376H287.603z"/>
		<path fill="#888CF0" d="M293.17,65.461c0-1.729-0.048-2.856-0.096-3.864h3.145l0.12,2.16h0.096c0.6-1.704,2.04-2.424,3.168-2.424
			c0.336,0,0.504,0,0.769,0.048v3.433c-0.265-0.048-0.576-0.096-0.984-0.096c-1.344,0-2.256,0.72-2.496,1.848
			c-0.048,0.24-0.072,0.528-0.072,0.816v5.953h-3.648V65.461z"/>
		<path fill="#888CF0" d="M302.267,70.141c0.672,0.408,2.063,0.888,3.144,0.888c1.104,0,1.561-0.384,1.561-0.984
			s-0.36-0.888-1.729-1.344c-2.424-0.816-3.36-2.136-3.336-3.528c0-2.184,1.872-3.84,4.776-3.84c1.368,0,2.592,0.312,3.313,0.672
			l-0.648,2.521c-0.527-0.288-1.536-0.672-2.544-0.672c-0.888,0-1.393,0.36-1.393,0.96c0,0.552,0.456,0.84,1.896,1.344
			c2.232,0.768,3.168,1.896,3.192,3.625c0,2.184-1.729,3.792-5.089,3.792c-1.536,0-2.904-0.336-3.792-0.816L302.267,70.141z"/>
		<path fill="#888CF0" d="M316.474,58.332c0,1.008-0.768,1.824-1.968,1.824c-1.152,0-1.921-0.816-1.896-1.824
			c-0.024-1.056,0.744-1.848,1.92-1.848C315.706,56.484,316.449,57.276,316.474,58.332z M312.705,73.333V61.597h3.648v11.737
			H312.705z"/>
		<path fill="#888CF0" d="M319.258,70.141c0.672,0.408,2.063,0.888,3.144,0.888c1.104,0,1.561-0.384,1.561-0.984
			s-0.36-0.888-1.729-1.344c-2.424-0.816-3.36-2.136-3.336-3.528c0-2.184,1.872-3.84,4.776-3.84c1.368,0,2.593,0.312,3.313,0.672
			l-0.648,2.521c-0.527-0.288-1.536-0.672-2.544-0.672c-0.888,0-1.393,0.36-1.393,0.96c0,0.552,0.456,0.84,1.896,1.344
			c2.232,0.768,3.168,1.896,3.192,3.625c0,2.184-1.729,3.792-5.089,3.792c-1.536,0-2.904-0.336-3.792-0.816L319.258,70.141z"/>
		<path fill="#888CF0" d="M333.778,58.236v3.36h2.616v2.688h-2.616v4.249c0,1.416,0.336,2.064,1.439,2.064
			c0.456,0,0.816-0.048,1.08-0.096l0.024,2.76c-0.48,0.192-1.345,0.312-2.376,0.312c-1.177,0-2.16-0.408-2.736-1.008
			c-0.672-0.696-1.009-1.824-1.009-3.48v-4.8h-1.56v-2.688h1.56v-2.544L333.778,58.236z"/>
		<path fill="#888CF0" d="M345.178,73.333l-0.216-1.176h-0.072c-0.768,0.936-1.968,1.44-3.36,1.44c-2.376,0-3.792-1.729-3.792-3.601
			c0-3.048,2.736-4.512,6.889-4.488v-0.168c0-0.624-0.336-1.512-2.137-1.512c-1.2,0-2.472,0.408-3.24,0.888l-0.672-2.352
			c0.816-0.456,2.424-1.032,4.561-1.032c3.912,0,5.16,2.304,5.16,5.064v4.08c0,1.128,0.048,2.208,0.168,2.856H345.178z
			 M344.746,67.789c-1.921-0.024-3.409,0.432-3.409,1.848c0,0.936,0.625,1.392,1.44,1.392c0.912,0,1.656-0.6,1.896-1.344
			c0.048-0.192,0.072-0.408,0.072-0.624V67.789z"/>
		<path fill="#888CF0" d="M351.177,65.341c0-1.464-0.048-2.712-0.096-3.744h3.168l0.168,1.608h0.072
			c0.48-0.744,1.681-1.872,3.624-1.872c2.4,0,4.201,1.584,4.201,5.041v6.96h-3.648v-6.504c0-1.512-0.528-2.544-1.849-2.544
			c-1.008,0-1.608,0.696-1.848,1.368c-0.097,0.216-0.145,0.576-0.145,0.912v6.769h-3.648V65.341z"/>
		<path fill="#888CF0" d="M374.049,73.045c-0.647,0.288-1.872,0.528-3.264,0.528c-3.793,0-6.217-2.304-6.217-6
			c0-3.433,2.353-6.241,6.721-6.241c0.96,0,2.017,0.168,2.784,0.456l-0.576,2.712c-0.432-0.192-1.08-0.36-2.04-0.36
			c-1.92,0-3.168,1.368-3.145,3.289c0,2.16,1.44,3.288,3.217,3.288c0.864,0,1.536-0.144,2.088-0.36L374.049,73.045z"/>
		<path fill="#888CF0" d="M378.609,68.629c0.12,1.512,1.608,2.232,3.313,2.232c1.248,0,2.256-0.168,3.24-0.48l0.479,2.472
			c-1.2,0.48-2.664,0.72-4.248,0.72c-3.984,0-6.265-2.304-6.265-5.977c0-2.977,1.849-6.265,5.929-6.265
			c3.792,0,5.232,2.952,5.232,5.856c0,0.624-0.072,1.176-0.12,1.44H378.609z M382.905,66.133c0-0.888-0.384-2.376-2.063-2.376
			c-1.536,0-2.16,1.392-2.257,2.376H382.905z"/>
	</g>
</g>
<g>
	<path fill="#888CF0" d="M188.193,163.316c-1.008,0.504-3.275,1.044-6.228,1.044c-8.387,0-12.706-5.219-12.706-12.13
		c0-8.279,5.903-12.886,13.246-12.886c2.844,0,5.004,0.576,5.976,1.08l-1.116,4.355c-1.115-0.468-2.663-0.9-4.607-0.9
		c-4.355,0-7.738,2.628-7.738,8.027c0,4.859,2.879,7.919,7.774,7.919c1.656,0,3.492-0.36,4.571-0.792L188.193,163.316z"/>
	<path fill="#888CF0" d="M208.317,155.001c0,6.443-4.572,9.395-9.287,9.395c-5.147,0-9.107-3.384-9.107-9.071
		c0-5.688,3.744-9.323,9.396-9.323C204.717,146.002,208.317,149.71,208.317,155.001z M195.574,155.181c0,3.023,1.26,5.292,3.6,5.292
		c2.124,0,3.492-2.124,3.492-5.292c0-2.628-1.008-5.292-3.492-5.292C196.545,149.89,195.574,152.589,195.574,155.181z"/>
	<path fill="#888CF0" d="M228.873,138.443v20.301c0,1.98,0.071,4.067,0.144,5.255h-4.859l-0.252-2.592h-0.072
		c-1.115,1.98-3.239,2.988-5.507,2.988c-4.176,0-7.523-3.563-7.523-9.035c-0.036-5.939,3.672-9.358,7.884-9.358
		c2.159,0,3.852,0.756,4.643,1.979h0.072v-9.539H228.873z M223.401,153.849c0-0.288-0.036-0.684-0.072-0.972
		c-0.323-1.476-1.512-2.7-3.203-2.7c-2.483,0-3.779,2.232-3.779,5.003c0,2.988,1.476,4.859,3.743,4.859
		c1.584,0,2.844-1.08,3.168-2.628c0.107-0.396,0.144-0.792,0.144-1.26V153.849z"/>
	<path fill="#888CF0" d="M237.478,156.945c0.18,2.268,2.412,3.348,4.968,3.348c1.871,0,3.383-0.252,4.859-0.72l0.72,3.708
		c-1.8,0.72-3.996,1.08-6.371,1.08c-5.976,0-9.396-3.456-9.396-8.963c0-4.463,2.772-9.395,8.892-9.395
		c5.687,0,7.847,4.427,7.847,8.783c0,0.936-0.108,1.764-0.18,2.16H237.478z M243.921,153.201c0-1.332-0.576-3.563-3.096-3.563
		c-2.304,0-3.239,2.088-3.384,3.563H243.921z"/>
</g>
</svg>
